<svg xmlns="http://www.w3.org/2000/svg" xmlns:xlink="http://www.w3.org/1999/xlink" width="500" zoomAndPan="magnify" viewBox="0 0 375 374.999991" height="500" preserveAspectRatio="xMidYMid meet" version="1.0"><defs><g/><clipPath id="11e3ab1fd2"><path d="M 48.824219 48.824219 L 326.175781 48.824219 L 326.175781 326.175781 L 48.824219 326.175781 Z M 48.824219 48.824219 " clip-rule="nonzero"/></clipPath><clipPath id="adfcad3480"><path d="M 187.5 48.824219 C 110.910156 48.824219 48.824219 110.910156 48.824219 187.5 C 48.824219 264.089844 110.910156 326.175781 187.5 326.175781 C 264.089844 326.175781 326.175781 264.089844 326.175781 187.5 C 326.175781 110.910156 264.089844 48.824219 187.5 48.824219 Z M 187.5 48.824219 " clip-rule="nonzero"/></clipPath></defs><rect x="-37.5" width="450" fill="#ffffff" y="-37.499999" height="449.999989" fill-opacity="1"/><rect x="-37.5" width="450" fill="#d9d9d9" y="-37.499999" height="449.999989" fill-opacity="1"/><g clip-path="url(#11e3ab1fd2)"><g clip-path="url(#adfcad3480)"><path fill="#1b3631" d="M 48.824219 48.824219 L 326.175781 48.824219 L 326.175781 326.175781 L 48.824219 326.175781 Z M 48.824219 48.824219 " fill-opacity="1" fill-rule="nonzero"/></g></g><g fill="#ffffff" fill-opacity="1"><g transform="translate(73.071093, 225.749985)"><g><path d="M 12.609375 -61.796875 C 12.328125 -61.796875 11.925781 -62.316406 11.40625 -63.359375 C 11.40625 -63.484375 12.125 -64.015625 13.5625 -64.953125 C 15.007812 -65.890625 17.875 -68.257812 22.15625 -72.0625 C 26.445312 -75.875 29.992188 -79.460938 32.796875 -82.828125 L 36.15625 -82.828125 C 36.675781 -82.828125 36.992188 -82.742188 37.109375 -82.578125 C 37.234375 -82.421875 37.296875 -82.125 37.296875 -81.6875 L 37.296875 -8.40625 C 37.296875 -5.882812 37.554688 -4.460938 38.078125 -4.140625 C 40.035156 -2.984375 44.019531 -2.40625 50.03125 -2.40625 C 50.351562 -2.40625 50.515625 -2.242188 50.515625 -1.921875 L 50.515625 -0.484375 C 50.515625 -0.160156 50.351562 0 50.03125 0 L 13.875 0 C 13.550781 0 13.390625 -0.160156 13.390625 -0.484375 L 13.390625 -1.921875 C 13.390625 -2.242188 13.550781 -2.40625 13.875 -2.40625 C 15.875 -2.519531 17.613281 -2.609375 19.09375 -2.671875 C 20.582031 -2.734375 22.144531 -2.84375 23.78125 -3 C 25.425781 -3.164062 26.578125 -3.425781 27.234375 -3.78125 C 27.898438 -4.144531 28.289062 -4.6875 28.40625 -5.40625 C 28.53125 -6.125 28.59375 -7.066406 28.59375 -8.234375 L 28.59375 -72.1875 C 28.625 -72.269531 28.179688 -71.953125 27.265625 -71.234375 C 22.054688 -67.066406 17.289062 -63.941406 12.96875 -61.859375 Z M 12.609375 -61.796875 "/></g></g></g><g fill="#ffffff" fill-opacity="1"><g transform="translate(129.288036, 225.374985)"><g><path d="M 40.1875 -5.125 C 35.695312 -0.832031 30.648438 1.3125 25.046875 1.3125 C 23.023438 1.3125 20.273438 0.941406 16.796875 0.203125 C 16.242188 0.203125 15.941406 0.394531 15.890625 0.78125 C 15.847656 1.175781 15.804688 1.582031 15.765625 2 L 15.765625 22.859375 C 15.765625 25.296875 17.179688 26.921875 20.015625 27.734375 C 21.253906 28.054688 22.410156 28.289062 23.484375 28.4375 C 24.554688 28.582031 25.25 28.71875 25.5625 28.84375 C 25.875 28.976562 26.03125 29.234375 26.03125 29.609375 C 26.03125 29.984375 25.863281 30.207031 25.53125 30.28125 L 1.078125 30.28125 C 0.753906 30.207031 0.59375 29.976562 0.59375 29.59375 C 0.59375 29.007812 1.351562 28.617188 2.875 28.421875 C 6.394531 27.898438 8.15625 26.046875 8.15625 22.859375 L 8.15625 -35.6875 C 8.15625 -37.0625 7.40625 -38.007812 5.90625 -38.53125 C 5.257812 -38.757812 4.5625 -38.945312 3.8125 -39.09375 C 3.0625 -39.238281 2.46875 -39.375 2.03125 -39.5 C 1.59375 -39.632812 1.316406 -39.757812 1.203125 -39.875 C 1.085938 -39.988281 1.03125 -40.226562 1.03125 -40.59375 C 1.03125 -40.96875 1.273438 -41.285156 1.765625 -41.546875 L 14.203125 -47.515625 C 14.460938 -47.640625 14.722656 -47.703125 14.984375 -47.703125 C 15.503906 -47.703125 15.765625 -47.3125 15.765625 -46.53125 L 15.765625 -40.328125 C 15.765625 -39.972656 15.953125 -39.796875 16.328125 -39.796875 C 16.703125 -39.796875 17.609375 -40.269531 19.046875 -41.21875 C 23.179688 -43.882812 27.476562 -45.21875 31.9375 -45.21875 C 35.0625 -45.21875 37.925781 -43.945312 40.53125 -41.40625 C 43.945312 -38.082031 46.222656 -33.460938 47.359375 -27.546875 C 47.691406 -25.847656 47.859375 -24.046875 47.859375 -22.140625 C 47.859375 -20.234375 47.546875 -18.222656 46.921875 -16.109375 C 45.679688 -11.910156 43.4375 -8.25 40.1875 -5.125 Z M 26.21875 -40.140625 C 21.789062 -40.140625 18.304688 -38.867188 15.765625 -36.328125 L 15.765625 -8.890625 C 15.765625 -7.265625 16.046875 -6.207031 16.609375 -5.71875 C 18.035156 -4.476562 20.226562 -3.515625 23.1875 -2.828125 C 29.050781 -1.492188 33.609375 -2.894531 36.859375 -7.03125 C 39.171875 -9.988281 40.328125 -13.570312 40.328125 -17.78125 C 40.328125 -25.945312 38.488281 -32.066406 34.8125 -36.140625 C 32.601562 -38.609375 29.738281 -39.941406 26.21875 -40.140625 Z M 26.21875 -40.140625 "/></g></g></g><g fill="#ffffff" fill-opacity="1"><g transform="translate(182.50861, 225.374985)"><g><path d="M 33.59375 -8.0625 C 33.59375 -7.207031 33.988281 -6.53125 34.78125 -6.03125 C 35.582031 -5.53125 36.503906 -5.28125 37.546875 -5.28125 C 38.585938 -5.28125 39.457031 -5.546875 40.15625 -6.078125 C 40.863281 -6.617188 41.347656 -6.890625 41.609375 -6.890625 C 41.867188 -6.890625 42 -6.535156 42 -5.828125 C 42 -5.128906 41.671875 -4.535156 41.015625 -4.046875 C 36.128906 -0.472656 32.828125 1.3125 31.109375 1.3125 C 29.023438 1.3125 27.332031 -0.847656 26.03125 -5.171875 C 25.925781 -5.503906 25.84375 -5.648438 25.78125 -5.609375 C 21.75 -2.585938 19.210938 -0.765625 18.171875 -0.140625 C 15.492188 1.390625 12.8125 1.628906 10.125 0.578125 C 7.445312 -0.460938 5.503906 -2.1875 4.296875 -4.59375 C 3.710938 -5.832031 3.421875 -7.148438 3.421875 -8.546875 C 3.421875 -11.316406 4.445312 -13.515625 6.5 -15.140625 C 8.550781 -16.765625 12.457031 -18.328125 18.21875 -19.828125 C 20.164062 -20.347656 21.90625 -21.015625 23.4375 -21.828125 C 24.96875 -22.640625 25.773438 -23.160156 25.859375 -23.390625 C 25.941406 -23.617188 25.984375 -23.832031 25.984375 -24.03125 L 25.984375 -33.40625 C 25.984375 -37.082031 24.550781 -39.664062 21.6875 -41.15625 C 20.738281 -41.644531 19.601562 -41.890625 18.28125 -41.890625 C 16.96875 -41.890625 15.632812 -41.367188 14.28125 -40.328125 C 12.925781 -39.285156 12.25 -37.804688 12.25 -35.890625 L 12.5 -33.984375 C 12.300781 -33.597656 11.128906 -32.945312 8.984375 -32.03125 C 6.835938 -31.125 5.601562 -30.632812 5.28125 -30.5625 C 4.757812 -30.5625 4.5 -31.1875 4.5 -32.4375 C 4.5 -33.695312 4.867188 -35.09375 5.609375 -36.625 C 6.359375 -38.15625 7.421875 -39.554688 8.796875 -40.828125 C 11.984375 -43.785156 15.625 -45.265625 19.71875 -45.265625 C 23.820312 -45.265625 27.160156 -44.132812 29.734375 -41.875 C 32.304688 -39.613281 33.59375 -36.921875 33.59375 -33.796875 Z M 11.078125 -9.46875 C 11.078125 -7.90625 11.679688 -6.546875 12.890625 -5.390625 C 14.097656 -4.234375 15.472656 -3.65625 17.015625 -3.65625 C 18.566406 -3.65625 20.445312 -4.316406 22.65625 -5.640625 C 24.875 -6.960938 25.984375 -8.320312 25.984375 -9.71875 L 25.984375 -19.625 C 25.984375 -19.988281 25.898438 -20.171875 25.734375 -20.171875 C 25.566406 -20.171875 25.453125 -20.15625 25.390625 -20.125 L 14.0625 -14.84375 C 12.894531 -14 12.101562 -13.28125 11.6875 -12.6875 C 11.28125 -12.101562 11.078125 -11.03125 11.078125 -9.46875 Z M 11.078125 -9.46875 "/></g></g></g><g fill="#ffffff" fill-opacity="1"><g transform="translate(225.719815, 225.374985)"><g><path d="M 27.09375 -33.40625 C 27.09375 -32.6875 26.820312 -32.328125 26.28125 -32.328125 C 25.75 -32.328125 25.335938 -32.71875 25.046875 -33.5 C 24.265625 -35.644531 23.097656 -37.546875 21.546875 -39.203125 C 20.003906 -40.867188 18.097656 -41.703125 15.828125 -41.703125 C 12.828125 -41.703125 10.804688 -40.203125 9.765625 -37.203125 C 9.441406 -36.191406 9.28125 -35.148438 9.28125 -34.078125 C 9.28125 -33.003906 9.960938 -31.804688 11.328125 -30.484375 C 12.691406 -29.171875 14.9375 -27.601562 18.0625 -25.78125 C 21.1875 -23.957031 23.46875 -22.410156 24.90625 -21.140625 C 28.15625 -18.242188 29.78125 -14.890625 29.78125 -11.078125 C 29.78125 -7.273438 28.378906 -4.257812 25.578125 -2.03125 C 22.785156 0.195312 19.535156 1.3125 15.828125 1.3125 C 13.835938 1.3125 12.035156 1.039062 10.421875 0.5 C 8.816406 -0.03125 7.890625 -0.296875 7.640625 -0.296875 C 7.398438 -0.296875 7.007812 -0.03125 6.46875 0.5 C 5.9375 1.039062 5.503906 1.3125 5.171875 1.3125 L 4.34375 1.3125 C 4.144531 1.3125 3.898438 -0.441406 3.609375 -3.953125 C 3.316406 -7.472656 3.171875 -9.554688 3.171875 -10.203125 C 3.171875 -10.859375 3.226562 -11.21875 3.34375 -11.28125 C 3.457031 -11.34375 3.644531 -11.375 3.90625 -11.375 C 4.164062 -11.375 4.382812 -11.289062 4.5625 -11.125 C 4.738281 -10.96875 4.890625 -10.765625 5.015625 -10.515625 C 5.148438 -10.273438 5.257812 -10.023438 5.34375 -9.765625 C 5.425781 -9.503906 5.628906 -9.015625 5.953125 -8.296875 C 8.171875 -3.578125 11.59375 -1.21875 16.21875 -1.21875 C 18.257812 -1.21875 19.898438 -1.972656 21.140625 -3.484375 C 22.378906 -5.003906 23 -6.691406 23 -8.546875 C 23 -10.398438 22.507812 -11.960938 21.53125 -13.234375 C 20.550781 -14.503906 19.335938 -15.660156 17.890625 -16.703125 C 16.441406 -17.742188 14.875 -18.753906 13.1875 -19.734375 C 6.613281 -23.566406 3.328125 -27.8125 3.328125 -32.46875 C 3.328125 -35.957031 4.820312 -38.960938 7.8125 -41.484375 C 10.8125 -44.003906 13.890625 -45.265625 17.046875 -45.265625 C 20.203125 -45.265625 22.535156 -44.921875 24.046875 -44.234375 C 25.554688 -43.554688 26.441406 -42.976562 26.703125 -42.5 C 26.960938 -42.03125 27.09375 -40.492188 27.09375 -37.890625 Z M 27.09375 -33.40625 "/></g></g></g><g fill="#ffffff" fill-opacity="1"><g transform="translate(259.165778, 225.374985)"><g><path d="M 27.09375 -33.40625 C 27.09375 -32.6875 26.820312 -32.328125 26.28125 -32.328125 C 25.75 -32.328125 25.335938 -32.71875 25.046875 -33.5 C 24.265625 -35.644531 23.097656 -37.546875 21.546875 -39.203125 C 20.003906 -40.867188 18.097656 -41.703125 15.828125 -41.703125 C 12.828125 -41.703125 10.804688 -40.203125 9.765625 -37.203125 C 9.441406 -36.191406 9.28125 -35.148438 9.28125 -34.078125 C 9.28125 -33.003906 9.960938 -31.804688 11.328125 -30.484375 C 12.691406 -29.171875 14.9375 -27.601562 18.0625 -25.78125 C 21.1875 -23.957031 23.46875 -22.410156 24.90625 -21.140625 C 28.15625 -18.242188 29.78125 -14.890625 29.78125 -11.078125 C 29.78125 -7.273438 28.378906 -4.257812 25.578125 -2.03125 C 22.785156 0.195312 19.535156 1.3125 15.828125 1.3125 C 13.835938 1.3125 12.035156 1.039062 10.421875 0.5 C 8.816406 -0.03125 7.890625 -0.296875 7.640625 -0.296875 C 7.398438 -0.296875 7.007812 -0.03125 6.46875 0.5 C 5.9375 1.039062 5.503906 1.3125 5.171875 1.3125 L 4.34375 1.3125 C 4.144531 1.3125 3.898438 -0.441406 3.609375 -3.953125 C 3.316406 -7.472656 3.171875 -9.554688 3.171875 -10.203125 C 3.171875 -10.859375 3.226562 -11.21875 3.34375 -11.28125 C 3.457031 -11.34375 3.644531 -11.375 3.90625 -11.375 C 4.164062 -11.375 4.382812 -11.289062 4.5625 -11.125 C 4.738281 -10.96875 4.890625 -10.765625 5.015625 -10.515625 C 5.148438 -10.273438 5.257812 -10.023438 5.34375 -9.765625 C 5.425781 -9.503906 5.628906 -9.015625 5.953125 -8.296875 C 8.171875 -3.578125 11.59375 -1.21875 16.21875 -1.21875 C 18.257812 -1.21875 19.898438 -1.972656 21.140625 -3.484375 C 22.378906 -5.003906 23 -6.691406 23 -8.546875 C 23 -10.398438 22.507812 -11.960938 21.53125 -13.234375 C 20.550781 -14.503906 19.335938 -15.660156 17.890625 -16.703125 C 16.441406 -17.742188 14.875 -18.753906 13.1875 -19.734375 C 6.613281 -23.566406 3.328125 -27.8125 3.328125 -32.46875 C 3.328125 -35.957031 4.820312 -38.960938 7.8125 -41.484375 C 10.8125 -44.003906 13.890625 -45.265625 17.046875 -45.265625 C 20.203125 -45.265625 22.535156 -44.921875 24.046875 -44.234375 C 25.554688 -43.554688 26.441406 -42.976562 26.703125 -42.5 C 26.960938 -42.03125 27.09375 -40.492188 27.09375 -37.890625 Z M 27.09375 -33.40625 "/></g></g></g></svg>