<svg width="22" height="22" viewBox="0 0 22 22" fill="none" xmlns="http://www.w3.org/2000/svg">
<path d="M10.9998 1.51758C5.76233 1.51758 1.51709 5.76282 1.51709 11.0003C1.51709 16.2379 5.76233 20.4831 10.9998 20.4831C16.2374 20.4831 20.4826 16.2379 20.4826 11.0003C20.4826 5.76282 16.2374 1.51758 10.9998 1.51758ZM15.9309 11.759H11.7585V15.9314C11.7585 16.1326 11.6785 16.3255 11.5363 16.4678C11.394 16.6101 11.201 16.69 10.9998 16.69C10.7986 16.69 10.6057 16.6101 10.4634 16.4678C10.3212 16.3255 10.2412 16.1326 10.2412 15.9314V11.759H6.06881C5.86762 11.759 5.67466 11.679 5.53239 11.5368C5.39012 11.3945 5.31019 11.2015 5.31019 11.0003C5.31019 10.7991 5.39012 10.6062 5.53239 10.4639C5.67466 10.3216 5.86762 10.2417 6.06881 10.2417H10.2412V6.0693C10.2412 5.8681 10.3212 5.67515 10.4634 5.53288C10.6057 5.39061 10.7986 5.31068 10.9998 5.31068C11.201 5.31068 11.394 5.39061 11.5363 5.53288C11.6785 5.67515 11.7585 5.8681 11.7585 6.0693V10.2417H15.9309C16.1321 10.2417 16.325 10.3216 16.4673 10.4639C16.6096 10.6062 16.6895 10.7991 16.6895 11.0003C16.6895 11.2015 16.6096 11.3945 16.4673 11.5368C16.325 11.679 16.1321 11.759 15.9309 11.759Z" fill="#111111"/>
</svg>
