<svg width="22" height="22" viewBox="0 0 22 22" fill="none" xmlns="http://www.w3.org/2000/svg">
<path d="M10.9722 9.28874C10.9722 9.49407 11.1372 9.65541 11.3388 9.65541C11.7568 9.65541 12.0942 9.99641 12.0942 10.4107C12.0942 10.6124 12.2592 10.7774 12.4608 10.7774C12.6625 10.7774 12.8275 10.6124 12.8275 10.4107C12.8275 9.58941 12.1602 8.92207 11.3388 8.92207C11.1372 8.92207 10.9722 9.08707 10.9722 9.28874ZM16.9415 10.7774C17.1468 10.7774 17.3082 10.6124 17.3082 10.4107C17.3082 7.11807 14.6315 4.44141 11.3388 4.44141C11.1372 4.44141 10.9722 4.60641 10.9722 4.80807C10.9722 5.00974 11.1372 5.17474 11.3388 5.17474C14.2282 5.17474 16.5748 7.52507 16.5748 10.4107C16.5748 10.6124 16.7398 10.7774 16.9415 10.7774Z" fill="white"/>
<path d="M14.3344 10.4089C14.3344 10.6106 14.4994 10.7756 14.701 10.7756C14.9027 10.7756 15.0677 10.6106 15.0677 10.4089C15.0677 8.35189 13.3957 6.67989 11.3387 6.67989C11.137 6.67989 10.972 6.84489 10.972 7.04655C10.972 7.25189 11.137 7.41322 11.3387 7.41322C12.9924 7.41322 14.3344 8.75889 14.3344 10.4089ZM11.3387 2.19922C11.137 2.19922 10.972 2.36422 10.972 2.56589C10.972 2.76755 11.137 2.93255 11.3387 2.93255C15.4637 2.93255 18.8187 6.28755 18.8187 10.4089C18.8187 10.6106 18.98 10.7756 19.1854 10.7756C19.387 10.7756 19.552 10.6106 19.552 10.4089C19.552 5.88055 15.867 2.19922 11.3387 2.19922ZM14.921 14.2736L14.4407 14.5339C13.6304 14.9776 12.6037 14.8272 11.9474 14.1709L8.07538 10.2989C7.41904 9.64255 7.26871 8.61589 7.71238 7.80189L7.97271 7.32522C8.26604 6.78255 8.37238 6.17389 8.28438 5.56522C8.20125 4.95778 7.92033 4.39465 7.48504 3.96289C6.94971 3.42755 6.23838 3.13422 5.47938 3.13422C4.72038 3.13422 4.00538 3.42755 3.47004 3.96289L3.28304 4.15355C2.29304 5.14355 2.17938 6.84855 2.96038 8.96055C3.69738 10.9772 5.18238 13.1626 7.13304 15.1132C10.1067 18.0869 13.4177 19.7992 15.7937 19.7992C16.7324 19.7992 17.528 19.5316 18.0927 18.9669L18.2834 18.7762C18.5474 18.5125 18.7568 18.1992 18.8997 17.8544C19.0425 17.5097 19.1159 17.1401 19.1157 16.7669C19.1106 16.0153 18.8119 15.2956 18.2834 14.7612C17.3997 13.8776 16.0174 13.6796 14.921 14.2736Z" fill="white"/>
</svg>
