<svg width="16" height="16" viewBox="0 0 16 16" fill="none" xmlns="http://www.w3.org/2000/svg">
<rect width="16" height="16" rx="8" transform="matrix(1 0 0 -1 0 16)" fill="#6B6B6B"/>
<path d="M8.6261 7.99951L11.4241 10.7933C11.5077 10.877 11.5547 10.9904 11.5547 11.1087C11.5547 11.227 11.5077 11.3404 11.4241 11.4241C11.3404 11.5077 11.227 11.5547 11.1087 11.5547C10.9905 11.5547 10.8771 11.5077 10.7934 11.4241L7.99989 8.62579L5.20636 11.4241C5.12273 11.5077 5.0093 11.5547 4.89103 11.5547C4.77276 11.5547 4.65934 11.5077 4.57571 11.4241C4.49208 11.3404 4.44509 11.227 4.44509 11.1087C4.44509 10.9904 4.49208 10.877 4.57571 10.7933L7.37368 7.99951L4.57571 5.20568C4.53408 5.16439 4.50104 5.11527 4.47849 5.06114C4.45594 5.00701 4.44434 4.94896 4.44434 4.89032C4.44434 4.83169 4.45594 4.77363 4.47849 4.7195C4.50104 4.66538 4.53408 4.61625 4.57571 4.57496C4.61699 4.53333 4.66611 4.50029 4.72023 4.47774C4.77435 4.45519 4.8324 4.44358 4.89103 4.44358C4.94966 4.44358 5.00771 4.45519 5.06183 4.47774C5.11595 4.50029 5.16507 4.53333 5.20636 4.57496L7.99989 7.37323L10.7934 4.57496C10.8347 4.53333 10.8838 4.50029 10.938 4.47774C10.9921 4.45519 11.0501 4.44358 11.1087 4.44358C11.1674 4.44358 11.2254 4.45519 11.2795 4.47774C11.3337 4.50029 11.3828 4.53333 11.4241 4.57496C11.4657 4.61625 11.4987 4.66538 11.5213 4.7195C11.5438 4.77363 11.5554 4.83169 11.5554 4.89032C11.5554 4.94896 11.5438 5.00701 11.5213 5.06114C11.4987 5.11527 11.4657 5.16439 11.4241 5.20568L8.6261 7.99951Z" fill="white"/>
</svg>
