<svg width="142" height="142" viewBox="0 0 142 142" fill="none" xmlns="http://www.w3.org/2000/svg">
<path d="M11.3271 86.732C5.50547 95.5071 3.8542 103.481 4.28789 110.075C5.07143 121.988 18.0261 126.925 29.9654 126.925H109.772C116.484 126.925 122.386 121.849 124.926 115.636C130.572 101.827 140.585 84.2262 134.074 67.3803C125.609 45.4762 113.123 49.5167 97.2501 30.5901C81.3778 11.6634 62.1193 11.238 38.6279 26.5495C15.1366 41.8611 27.4112 62.4888 11.3271 86.732Z" fill="#E7E8FF"/>
<path d="M57.8997 22.0942C57.8997 18.5257 60.7832 15.6328 64.3403 15.6328H112.459C116.016 15.6328 118.9 18.5257 118.9 22.0942V120.084C118.9 123.652 116.016 126.545 112.459 126.545H64.3403C60.7832 126.545 57.8997 123.652 57.8997 120.084V22.0942Z" fill="white"/>
<path fill-rule="evenodd" clip-rule="evenodd" d="M57.5205 22.0954C57.5205 18.3169 60.574 15.2539 64.3403 15.2539H112.459C116.225 15.2539 119.279 18.3169 119.279 22.0954V120.085C119.279 123.863 116.225 126.926 112.459 126.926H64.3403C60.574 126.926 57.5205 123.863 57.5205 120.085V22.0954ZM64.3403 16.0141C60.9924 16.0141 58.2783 18.7367 58.2783 22.0954V120.085C58.2783 123.443 60.9924 126.166 64.3403 126.166H112.459C115.807 126.166 118.521 123.443 118.521 120.085V22.0954C118.521 18.7367 115.807 16.0141 112.459 16.0141H64.3403Z" fill="#111111"/>
<path d="M75.9075 107.854C75.9075 106.804 76.7557 105.953 77.8017 105.953H99.5595C100.606 105.953 101.454 106.804 101.454 107.854V109.514C101.454 110.564 100.606 111.414 99.5595 111.414H77.8017C76.7557 111.414 75.9075 110.564 75.9075 109.514V107.854Z" fill="#E7E8FF"/>
<path d="M75.8455 18.5526L74.2935 15.6328H102.506L100.62 18.7862C99.6613 20.389 97.9346 21.3696 96.0715 21.3696H80.5258C78.5672 21.3696 76.7676 20.2865 75.8455 18.5526Z" fill="#111111"/>
<path d="M117.375 17.9302H59.4246C61.4069 15.9415 63.3002 15.5718 63.9993 15.6355H112.8C115.24 15.6355 116.866 17.1653 117.375 17.9302Z" fill="#111111"/>
<path d="M117.375 124.25H59.4246C61.4069 126.239 63.3002 126.609 63.9993 126.545H112.8C115.24 126.545 116.866 125.015 117.375 124.25Z" fill="#111111"/>
<path fill-rule="evenodd" clip-rule="evenodd" d="M95.3814 45.4164H68.7881V44.6562H95.3814V45.4164Z" fill="#E7E8FF"/>
<path fill-rule="evenodd" clip-rule="evenodd" d="M108.155 38.6937H68.7881V37.9336H108.155V38.6937Z" fill="#E7E8FF"/>
<path d="M82.1897 93.9903C82.1897 92.9409 83.0379 92.0898 84.084 92.0898H85.7397C86.7858 92.0898 87.634 92.9409 87.634 93.9903V95.6512C87.634 96.7006 86.7858 97.5512 85.7397 97.5512H84.084C83.0379 97.5512 82.1897 96.7006 82.1897 95.6512V93.9903Z" fill="#455A64"/>
<path fill-rule="evenodd" clip-rule="evenodd" d="M91.8618 93.9876C91.8618 92.728 92.8795 91.707 94.1352 91.707H95.7905C97.0462 91.707 98.0639 92.728 98.0639 93.9876V95.6485C98.0639 96.9075 97.0462 97.9285 95.7905 97.9285H94.1352C92.8795 97.9285 91.8618 96.9075 91.8618 95.6485V93.9876ZM94.1352 92.4672C93.2979 92.4672 92.6196 93.1479 92.6196 93.9876V95.6485C92.6196 96.4877 93.2979 97.1683 94.1352 97.1683H95.7905C96.6278 97.1683 97.3061 96.4877 97.3061 95.6485V93.9876C97.3061 93.1479 96.6278 92.4672 95.7905 92.4672H94.1352Z" fill="#E7E8FF"/>
<path d="M101.035 82.4207V55.3379C101.035 54.2881 100.187 53.4375 99.1405 53.4375H80.9678C80.4652 53.4375 79.9833 53.6377 79.6283 53.9941L76.0433 57.5901C75.6883 57.9465 75.4885 58.4297 75.4885 58.9338V82.4207C75.4885 83.4705 76.3367 84.3211 77.3833 84.3211H99.1405C100.187 84.3211 101.035 83.4705 101.035 82.4207Z" fill="white"/>
<path fill-rule="evenodd" clip-rule="evenodd" d="M79.3604 53.7265C79.7869 53.2986 80.3648 53.0586 80.9678 53.0586H99.1405C100.396 53.0586 101.414 54.0796 101.414 55.3391V82.4218C101.414 83.6814 100.396 84.7023 99.1405 84.7023H77.3833C76.1275 84.7023 75.1099 83.6814 75.1099 82.4218V58.935C75.1099 58.3301 75.3494 57.7503 75.7758 57.3224L79.3604 53.7265ZM80.9678 53.8188C80.566 53.8188 80.1802 53.9788 79.8962 54.2637L76.3117 57.8601C76.0272 58.145 75.8677 58.5317 75.8677 58.935V82.4218C75.8677 83.2615 76.546 83.9422 77.3833 83.9422H99.1405C99.9779 83.9422 100.656 83.2615 100.656 82.4218V55.3391C100.656 54.4994 99.9779 53.8188 99.1405 53.8188H80.9678Z" fill="#455A64"/>
<path d="M75.5979 58.1467L80.2924 53.4375V57.0064C80.2924 57.636 79.7836 58.1467 79.1559 58.1467H75.5979Z" fill="#455A64"/>
<path fill-rule="evenodd" clip-rule="evenodd" d="M86.5153 59.8422H80.8381V59.082H86.5153V59.8422ZM95.2492 65.0991H80.8381V64.3389H95.2492V65.0991ZM95.2492 69.5896H80.8381V68.8294H95.2492V69.5896ZM95.2492 74.1889H80.8381V73.4288H95.2492V74.1889ZM92.6289 78.4603H80.8381V77.7001H92.6289V78.4603Z" fill="#455A64"/>
<path d="M61.9301 112.855L63.548 126.924H19.4714L20.8867 112.855H61.9301Z" fill="#111111"/>
<path d="M36.8591 51.5949L36.2526 56.8517L36.4547 60.8954L43.9356 61.7039L47.1706 57.6602L46.564 51.5949C47.7966 50.8906 48.7229 48.9589 48.9411 45.9336C49.3619 45.7989 50.2035 45.1654 50.2035 43.7096C50.2035 42.2539 49.281 41.7551 48.82 41.6877C48.1635 36.78 45.6175 35.0156 41.3072 35.0156C37.1748 35.0156 34.9343 37.7185 34.2543 41.6877C33.7747 41.6204 32.8154 41.9304 32.8154 43.7096C32.8154 45.4888 33.6771 45.9336 34.108 45.9336C34.5032 49.3612 36.2624 51.1173 36.8591 51.5949Z" fill="#FFBE9D"/>
<path d="M33.0179 38.2501C32.6944 40.1911 33.0179 42.9004 33.8266 43.9113L35.4441 40.4741C35.9294 40.7976 38.2073 40.8785 39.0835 40.8785C42.4801 40.7168 44.9468 38.7892 45.7556 37.8458C45.9173 39.3015 48.1144 43.1699 48.9906 44.9222C50.0688 43.3048 50.7698 39.0589 49.7995 35.0152C48.8287 30.9714 46.1599 30.7693 44.5425 31.1736C40.0944 27.7365 35.0397 28.1409 32.6135 31.578C30.6726 34.3277 31.8048 37.1718 33.0179 38.2501Z" fill="#111111"/>
<path d="M23.7463 117.132C22.6944 116.139 22.2002 115.258 22.0845 114.941C20.7856 115.746 17.7748 116.301 16.8428 117.709C15.6779 119.47 18.0786 124.714 18.9881 125.2C19.8974 125.686 23.3266 124.82 24.1994 124.028C24.8977 123.394 24.2809 121.658 23.856 120.967C24.315 120.613 25.6192 120.443 25.5432 119.576C25.4482 118.491 25.0611 118.374 23.7463 117.132Z" fill="#FFBE9D"/>
<path fill-rule="evenodd" clip-rule="evenodd" d="M22.0932 59.8889C21.9615 59.9457 21.8288 60.0115 21.6952 60.0862C11.1816 66.5562 4.91387 87.9878 5.11608 92.8404C5.31824 97.6926 13.2034 118.72 15.2253 118.922C16.9153 119.091 21.9956 117.424 23.6177 115.809C28.7308 117.103 36.713 117.103 42.5203 117.103C52.4273 117.103 62.1321 116.294 63.7499 113.665C64.2928 112.783 63.6822 109.689 63.1431 107.802C64.3563 110.093 68.2788 113.827 74.2631 110.43C81.7441 106.185 78.3068 93.2447 72.0394 74.0373C67.0249 58.671 54.0447 55.0992 48.1815 55.2341C48.1815 56.5817 46.9279 59.2778 41.9137 59.2778C36.8996 59.2778 35.7808 56.5817 35.646 55.2341C33.2198 55.3013 27.1138 56.3256 22.0996 59.8841C22.0975 59.8855 22.0953 59.8874 22.0932 59.8889Z" fill="#455A64"/>
<path d="M30.8662 63.7808C30.8682 63.0798 31.438 62.5137 32.1388 62.5156L49.744 62.5663C50.445 62.5682 51.0111 63.1381 51.0092 63.8391L50.9401 87.812C50.9382 88.513 50.3683 89.0796 49.6677 89.0772L32.0625 89.0266C31.3616 89.0247 30.7951 88.4548 30.7971 87.7538L30.8662 63.7808Z" fill="white"/>
<path fill-rule="evenodd" clip-rule="evenodd" d="M30.4433 63.7807C30.446 62.8464 31.2057 62.0909 32.1402 62.0938L49.7455 62.1444C50.6798 62.1472 51.4353 62.9069 51.4324 63.8413L51.3633 87.8147C51.3605 88.7491 50.6008 89.5045 49.6664 89.5017L32.0614 89.451C31.1269 89.4482 30.3716 88.6885 30.3743 87.7541L30.4433 63.7807ZM32.1377 62.9396C31.6705 62.9387 31.2906 63.3164 31.2893 63.7836L31.2203 87.7565C31.2189 88.2237 31.5966 88.6037 32.0638 88.6052L49.6688 88.6558C50.136 88.6568 50.5161 88.2795 50.5175 87.8119L50.5866 63.8389C50.5875 63.3718 50.2103 62.9917 49.7427 62.9907L32.1377 62.9396Z" fill="#111111"/>
<path d="M63.143 108.006L52.4272 89.2031C53.2362 96.0773 59.7062 107.602 63.952 112.252C63.952 111.282 63.3452 108.68 63.143 108.006Z" fill="#111111"/>
<path d="M69.6132 90.6183C66.6283 87.8323 60.3131 82.3042 58.5732 82.131C58.5462 82.13 58.5197 82.1286 58.4932 82.1267C58.5187 82.1267 58.5452 82.1281 58.5732 82.131C59.3669 82.1471 60.3127 81.4144 60.3127 78.2852C62.3347 83.7441 68.1979 86.3725 69.6132 90.6183Z" fill="#111111"/>
<path d="M52.6295 86.9776L57.8863 82.8757C57.2426 82.311 55.7611 80.5028 54.9881 77.7906C54.2152 75.0789 52.2182 74.0239 51.3165 73.8359V76.4724C50.6079 75.8448 48.9205 74.7395 47.8379 75.3426C46.4854 76.0956 47.0651 82.1226 47.2584 82.8757C47.4517 83.6292 49.9637 84.7591 50.9298 84.9474C51.7027 85.0984 52.0232 85.967 52.6295 86.9776Z" fill="#FFBE9D"/>
<path d="M6.93571 100.523C10.1707 94.2143 8.55319 85.4936 7.34008 81.9219C6.73355 84.2133 5.43955 89.3622 5.11603 91.6266C4.79256 93.8911 6.19438 98.5008 6.93571 100.523Z" fill="#111111"/>
<path d="M62.9409 107.398C67.7935 103.84 75.2069 104.163 78.3072 104.77C77.9702 106.252 77.0941 109.653 72.4436 111.442C67.1867 113.464 64.0869 109.488 62.9409 107.398Z" fill="#111111"/>
<path d="M21.6954 95.2684C21.8572 92.1951 23.7847 84.822 24.7282 81.5195C23.3129 85.159 19.6736 91.2248 19.6736 95.2684C19.6736 98.5032 22.6389 109.556 24.1216 114.678C23.2455 109.489 21.5336 98.3413 21.6954 95.2684Z" fill="#111111"/>
<path d="M41.4618 53.4562C38.8739 53.4562 37.2833 52.1758 36.8115 51.6367L36.6094 53.6583C41.1383 56.2465 45.2359 54.7371 46.7186 53.6583L46.5164 51.6367C45.9099 52.1758 44.0498 53.4562 41.4618 53.4562Z" fill="#111111"/>
<path d="M101.962 93.3719C101.424 106.124 109.368 120.085 113.877 126.106C114.113 126.42 114.482 126.598 114.875 126.598H118.227C118.988 126.598 119.577 125.922 119.477 125.168C116.49 102.672 108.212 94.268 103.364 92.3798C102.676 92.1119 101.993 92.634 101.962 93.3719Z" fill="white"/>
<path fill-rule="evenodd" clip-rule="evenodd" d="M103.21 92.7741C102.836 92.6284 102.405 92.8925 102.384 93.3895C102.119 99.6787 103.946 106.291 106.416 112.098C108.884 117.901 111.98 122.867 114.216 125.852C114.369 126.056 114.611 126.175 114.875 126.175H118.227C118.731 126.175 119.124 125.726 119.058 125.224C116.078 102.787 107.843 94.5785 103.21 92.7741ZM101.539 93.354C101.58 92.3751 102.515 91.5951 103.517 91.9856C108.579 93.9575 116.902 102.558 119.896 125.112C120.03 126.118 119.246 127.021 118.227 127.021H114.875C114.354 127.021 113.857 126.784 113.539 126.359C111.266 123.324 108.134 118.299 105.638 112.429C103.142 106.562 101.266 99.8173 101.539 93.354Z" fill="#111111"/>
<path d="M127.344 85.7677C116.909 95.0948 114.819 116.953 114.85 125.536C114.852 126.221 115.414 126.752 116.099 126.752H119.203C119.673 126.752 120.109 126.484 120.326 126.068C130.77 106.046 129.696 93.6128 129.318 86.6813C129.262 85.6631 128.104 85.0875 127.344 85.7677Z" fill="#111111"/>
<path d="M135.583 105.28C127.355 109.212 120.872 118.93 117.877 124.833C117.461 125.653 118.07 126.597 118.99 126.597H122.68C122.925 126.597 123.166 126.525 123.37 126.391C132.334 120.442 136.048 111.603 137.113 106.477C137.302 105.57 136.419 104.88 135.583 105.28Z" fill="white"/>
<path fill-rule="evenodd" clip-rule="evenodd" d="M136.699 106.393C136.816 105.83 136.288 105.414 135.765 105.664C131.729 107.593 128.098 110.954 125.094 114.588C122.093 118.219 119.74 122.097 118.254 125.026C117.989 125.549 118.369 126.176 118.99 126.176H122.68C122.843 126.176 123.003 126.128 123.136 126.04C131.984 120.169 135.65 111.441 136.699 106.393ZM135.401 104.901C136.551 104.351 137.788 105.313 137.527 106.565C136.446 111.769 132.684 120.719 123.604 126.744C123.329 126.927 123.006 127.022 122.68 127.022H118.99C117.772 127.022 116.933 125.759 117.5 124.643C119.009 121.668 121.395 117.736 124.442 114.05C127.486 110.367 131.21 106.903 135.401 104.901Z" fill="#111111"/>
<path fill-rule="evenodd" clip-rule="evenodd" d="M106.408 97.3125C108.139 99.6612 109.769 102.877 111.231 106.356C112.221 108.713 113.138 111.2 113.958 113.635L114.775 111.027L115.582 111.28L114.414 115.011C115.164 117.317 115.824 119.547 116.373 121.542C116.881 123.385 117.294 125.028 117.599 126.346L116.774 126.537C116.484 125.277 116.091 123.713 115.61 121.958L112.689 120.65L113.035 119.878L115.316 120.9C114.811 119.108 114.224 117.155 113.568 115.145C112.673 112.404 111.651 109.561 110.535 106.886L106.593 106.007L106.777 105.181L110.129 105.928C108.764 102.771 107.277 99.9173 105.727 97.8142L106.408 97.3125Z" fill="#111111"/>
<path fill-rule="evenodd" clip-rule="evenodd" d="M124.057 100.203C124.668 98.0097 125.251 96.025 125.775 94.3859C126.382 92.4831 126.902 91.0782 127.289 90.3498L126.542 89.9531C126.114 90.7573 125.575 92.2318 124.969 94.1284C124.359 96.0359 123.673 98.4017 122.955 101.01C122.455 102.83 121.939 104.769 121.423 106.755L120.201 103.884L119.422 104.216L121.075 108.099C120.452 110.522 119.832 112.991 119.245 115.376C118.227 119.506 117.306 123.385 116.62 126.346L117.444 126.538C118.119 123.623 119.023 119.819 120.021 115.762L124.181 113.534L123.781 112.788L120.294 114.656C120.824 112.516 121.375 110.324 121.93 108.171C122.534 105.828 123.141 103.531 123.727 101.396L127.136 99.3147L126.695 98.5929L124.057 100.203Z" fill="white"/>
<path fill-rule="evenodd" clip-rule="evenodd" d="M130.689 112.253C131.717 111.184 132.722 110.236 133.667 109.476L133.136 108.816C131.892 109.818 130.566 111.118 129.233 112.566C128.37 113.504 127.502 114.508 126.65 115.536L126.87 114.154L126.035 114.022L125.586 116.845C124.464 118.248 123.387 119.667 122.405 121.009C120.87 123.104 119.566 125.01 118.685 126.366L119.394 126.827C120.242 125.522 121.49 123.696 122.961 121.682H125.986V120.836H123.583C124.443 119.677 125.364 118.474 126.317 117.286C127.439 115.886 128.602 114.508 129.755 113.248L132.692 112.808L132.567 111.971L130.689 112.253Z" fill="#111111"/>
</svg>
