<svg width="272" height="204" viewBox="0 0 272 204" fill="none" xmlns="http://www.w3.org/2000/svg">
<path d="M24.3009 203.386C7.40093 196.092 -16.3383 154.961 17.4046 116.365C38.4979 92.238 5.35363 41.1617 67.6175 9.32965C108.287 -11.4623 197.394 3.55551 245.572 61.4546C278.318 100.809 279.076 158.71 253.297 202.855L24.3009 203.386Z" fill="#F0F0F0"/>
<path d="M51.4591 156.136C51.0811 155.709 42.2256 145.605 44.5321 139.534C45.3837 137.293 47.6607 135.905 51.3018 135.407C49.9405 133.236 41.4051 119.103 44.3174 110.415C45.2134 107.742 47.1301 105.852 50.0148 104.797C53.2362 103.62 56.0206 104.555 58.2913 107.579L57.9767 107.815C55.8224 104.947 53.1886 104.056 50.1497 105.167C47.383 106.178 45.5462 107.986 44.6903 110.54C41.6565 119.589 51.6967 135.298 51.7986 135.456L51.9693 135.721L51.657 135.758C47.9927 136.2 45.7192 137.518 44.8999 139.674C42.6772 145.523 51.6625 155.773 51.7537 155.876L51.4591 156.136Z" fill="#1E2325"/>
<path d="M53.9666 156.794C53.9666 156.794 37.6193 138.325 53.9938 136.351C53.9938 136.351 37.7216 111.152 52.4429 105.77C59.4025 103.225 63.092 111.18 65.048 120.275C65.048 120.275 74.3527 113.813 75.5449 128.305C75.5449 128.305 85.3849 123.482 87.3752 134.769C89.3655 146.057 88.9371 155.724 88.9371 155.724L75.1543 161.311L53.9666 156.794Z" fill="#1E2325"/>
<path d="M74.4971 154.71C59.6582 139.97 56.2964 116.868 56.2642 116.637L56.6536 116.582C56.6854 116.813 60.0315 139.787 74.7744 154.431L74.4971 154.71Z" fill="#111111"/>
<path d="M64.9003 141.533C64.8873 141.424 63.6455 130.638 68.9661 124.715L69.2588 124.978C64.0581 130.767 65.2775 141.378 65.2908 141.485L64.9003 141.533Z" fill="#111111"/>
<path d="M78.7078 202.976L52.7085 202.775C40.1305 196.616 45.4314 188.079 51.4132 188.283C51.4132 188.283 36.9925 185.229 35.0695 174.848C34.5251 171.909 37.0971 170.348 41.0646 169.622C41.0646 169.622 23.0669 154.157 31.8646 147.571C39.3422 141.973 47.5672 155.612 47.5672 155.612C47.5672 155.612 53.0153 147.164 59.5313 157.953C59.5313 157.953 64.0015 146.436 72.7771 154.797C74.9137 156.833 75.4526 159.283 76.5158 161.006L78.7078 202.976Z" fill="#6B6B6B"/>
<path d="M81.0419 192.954C56.4424 180.556 43.3315 160.025 43.2017 159.819L43.5348 159.609C43.6638 159.815 56.7209 180.255 81.2193 192.603L81.0419 192.954Z" fill="#111111"/>
<path d="M53.4608 172.392C53.4344 172.322 50.8321 165.271 53.5902 157.797L53.9595 157.933C51.2538 165.265 53.803 172.184 53.8289 172.253L53.4608 172.392Z" fill="#111111"/>
<path d="M62.3372 183.439C51.6192 183.439 44.6643 178.266 44.5884 178.208L44.8263 177.895C44.9089 177.957 53.2449 184.15 65.7222 182.872L65.7623 183.263C64.5839 183.385 63.4397 183.439 62.3372 183.439Z" fill="#111111"/>
<path d="M49.7321 202.952C41.5389 198.94 41.6652 194.46 42.0994 192.721C42.6812 190.39 44.7639 188.602 47.2049 188.178C43.6433 187.246 33.8044 183.924 32.2252 175.395C31.8865 173.566 32.3212 171.732 33.3887 170.489C34.2965 169.431 35.6122 168.849 37.2154 168.787C35.1551 166.975 26.1246 158.651 26.315 152.132C26.3708 150.223 27.2263 148.635 28.8575 147.414C31.2183 145.647 33.8847 145.563 36.7839 147.166L36.5936 147.51C33.8422 145.989 31.3186 146.063 29.0935 147.729C27.563 148.875 26.7606 150.36 26.7083 152.144C26.5034 159.156 37.7551 168.736 37.8684 168.832L38.3002 169.197L37.7354 169.179C36.0169 169.121 34.6135 169.666 33.6872 170.745C32.6968 171.899 32.2948 173.61 32.6122 175.324C34.4877 185.45 48.418 188.064 48.5588 188.089L48.5175 188.48C45.7181 188.392 43.1229 190.248 42.4818 192.816C42.0707 194.463 41.9704 198.713 49.9055 202.599L49.7321 202.952Z" fill="#6B6B6B"/>
<path d="M67.7185 157.652C67.4943 157.333 67.265 157.018 67.0298 156.708L67.4998 156.352C67.739 156.667 67.9734 156.988 68.2015 157.314L67.7185 157.652Z" fill="white"/>
<path d="M65.5722 154.916C65.0825 154.352 64.5551 153.781 64.0036 153.217L64.4257 152.804C64.985 153.377 65.5203 153.957 66.0171 154.529L65.5722 154.916ZM62.3441 151.601C61.8053 151.101 61.2228 150.582 60.6131 150.059L60.9978 149.611C61.6129 150.139 62.2014 150.663 62.7457 151.169L62.3441 151.601ZM58.8278 148.576C58.226 148.09 57.6171 147.61 57.0031 147.135L57.3642 146.669C57.9813 147.147 58.5937 147.628 59.1983 148.117L58.8278 148.576ZM55.1536 145.722C54.662 145.351 54.1691 144.98 53.6767 144.61L53.2916 144.321L53.646 143.849L54.031 144.138C54.5243 144.509 55.0175 144.88 55.5096 145.251L55.1536 145.722ZM51.4292 142.915C50.8089 142.444 50.1917 141.969 49.5797 141.49L49.9435 141.025C50.5536 141.503 51.1688 141.976 51.7867 142.446L51.4292 142.915ZM47.755 140.027C47.1178 139.503 46.5345 139.007 45.9709 138.512L46.3603 138.068C46.9188 138.56 47.4978 139.051 48.1299 139.571L47.755 140.027ZM44.2426 136.93C43.6651 136.378 43.109 135.818 42.589 135.267L43.0181 134.863C43.531 135.406 44.0805 135.959 44.6504 136.504L44.2426 136.93ZM41.0294 133.512C40.8001 133.237 40.5743 132.959 40.3529 132.677C40.0937 132.346 39.8356 132.003 39.5863 131.656L40.0654 131.312C40.31 131.652 40.5629 131.989 40.817 132.312C41.0349 132.59 41.2568 132.864 41.4825 133.134L41.0294 133.512ZM38.2867 129.695C37.8824 129.032 37.4957 128.342 37.1374 127.642L37.6625 127.373C38.0141 128.059 38.3937 128.737 38.7906 129.387L38.2867 129.695ZM36.1403 125.513C35.8366 124.798 35.5526 124.06 35.297 123.319L35.8547 123.126C36.1061 123.855 36.3849 124.58 36.6835 125.283L36.1403 125.513ZM34.6067 121.072C34.4033 120.321 34.2228 119.551 34.0694 118.784L34.648 118.668C34.799 119.423 34.9768 120.18 35.1766 120.918L34.6067 121.072ZM33.6843 116.466C33.582 115.695 33.5034 114.909 33.4507 114.129L34.0391 114.088C34.091 114.856 34.1685 115.63 34.2692 116.389L33.6843 116.466ZM33.3681 111.782L33.3677 111.67C33.3677 110.926 33.3909 110.174 33.4361 109.433L34.0249 109.469C33.9801 110.198 33.9577 110.939 33.9577 111.671L33.9581 111.779L33.3681 111.782ZM34.2409 107.167L33.6556 107.093C33.7535 106.318 33.8782 105.537 34.0261 104.773L34.6055 104.885C34.46 105.637 34.3372 106.405 34.2409 107.167ZM35.1188 102.631L34.5485 102.481C34.7479 101.723 34.9744 100.966 35.223 100.229L35.782 100.418C35.5381 101.142 35.3151 101.887 35.1188 102.631ZM36.5946 98.256L36.0498 98.0294C36.3515 97.3053 36.6811 96.5863 37.0296 95.8921L37.5571 96.1568C37.2145 96.8388 36.8908 97.5449 36.5946 98.256ZM38.6678 94.1335L38.1616 93.8306C38.5648 93.156 38.9959 92.4925 39.4431 91.8584L39.9249 92.1983C39.4868 92.8205 39.0635 93.4715 38.6678 94.1335ZM41.326 90.3642L40.8705 89.9893C41.3 89.4674 41.772 88.9206 42.4014 88.2162L42.8415 88.6091C42.2177 89.3077 41.75 89.8489 41.326 90.3642ZM44.3995 86.8753L43.9594 86.4824C44.5816 85.785 45.0485 85.2434 45.4725 84.7261L45.9288 85.1002C45.4989 85.6237 45.0273 86.1712 44.3995 86.8753ZM50.9847 85.3448L50.8274 85.3441L50.834 84.7541L50.9847 84.7548C51.6947 84.7548 52.4113 84.7065 53.1154 84.6113L53.1944 85.1958C52.4644 85.2949 51.721 85.3448 50.9847 85.3448ZM48.4638 85.1482C47.6756 85.0235 46.8987 84.839 46.1542 84.5999L46.3347 84.0382C47.0502 84.2679 47.7975 84.4453 48.5558 84.5653L48.4638 85.1482ZM55.5155 84.7088L55.3523 84.142C56.0894 83.93 56.8099 83.6629 57.494 83.3483L57.7406 83.884C57.0298 84.2109 56.2809 84.4885 55.5155 84.7088ZM43.9578 83.6924C43.2895 83.3487 42.6503 82.951 42.0576 82.5109L41.9439 82.4255L42.3011 81.9559L42.4084 82.0369C42.976 82.4586 43.588 82.8389 44.2276 83.1681L43.9578 83.6924ZM47.3515 83.2244L46.8661 82.8889L46.9188 82.8122C47.3428 82.1927 47.722 81.5582 48.0477 80.9257L48.5724 81.1956C48.2357 81.8501 47.8435 82.5058 47.4065 83.1445L47.3515 83.2244ZM59.8138 82.7233L59.4846 82.2336C60.121 81.806 60.7185 81.3265 61.2609 80.8085L61.6684 81.2349C61.102 81.7761 60.4778 82.2768 59.8138 82.7233ZM40.1845 80.8203C39.6327 80.2138 39.1548 79.5679 38.7638 78.9005L39.2732 78.6023C39.6433 79.2344 40.0964 79.8468 40.6207 80.4231L40.1845 80.8203ZM63.2366 79.4448L62.7607 79.0963C63.2036 78.491 63.6032 77.8361 63.9474 77.1505L64.4748 77.4152C64.1157 78.1303 63.6992 78.8131 63.2366 79.4448ZM49.4943 79.0067L48.9335 78.8226C49.1789 78.0741 49.3457 77.3295 49.429 76.6097L50.0151 76.6777C49.9274 77.4369 49.7524 78.22 49.4943 79.0067ZM37.8155 76.6962C37.6523 76.1165 37.5527 75.5268 37.5201 74.9439C37.513 74.8208 37.5099 74.6973 37.5099 74.5738C37.5103 74.4825 37.5118 74.3921 37.5154 74.302L38.105 74.3252C38.1018 74.4086 38.0999 74.4916 38.0999 74.5742C38.0999 74.6863 38.103 74.7984 38.1093 74.9105C38.14 75.4505 38.2324 75.9977 38.3839 76.5361L37.8155 76.6962ZM65.3693 75.2165L64.8072 75.0371C65.0365 74.3177 65.2151 73.57 65.3378 72.8148L65.9199 72.9092C65.7929 73.6931 65.6076 74.4692 65.3693 75.2165ZM49.4153 74.3594C49.3874 74.1541 49.3516 73.9496 49.3075 73.745C49.1966 73.2306 49.0176 72.72 48.7757 72.2276L49.3055 71.9676C49.5687 72.5033 49.7634 73.0595 49.8845 73.6211C49.9317 73.8402 49.9703 74.0601 50.0002 74.28L49.4153 74.3594ZM38.5727 72.1544L38.0244 71.9361C38.3312 71.1648 38.7548 70.4694 39.2834 69.8691L39.7263 70.2589C39.2425 70.8084 38.8547 71.446 38.5727 72.1544ZM66.1288 70.5465L65.5388 70.5374C65.54 70.4513 65.5408 70.3651 65.5408 70.2794C65.5408 69.6017 65.4971 68.9208 65.411 68.2549L65.9959 68.1794C66.0855 68.8705 66.1308 69.5769 66.1308 70.279C66.1312 70.3675 66.1304 70.4572 66.1288 70.5465ZM47.4935 70.4017C46.9585 69.8467 46.3591 69.4003 45.7121 69.0758L45.9768 68.5483C46.6836 68.9031 47.3365 69.3893 47.9183 69.9922L47.4935 70.4017ZM41.4715 68.933L41.2229 68.3981C41.61 68.2183 42.0159 68.0866 42.4297 68.0071C42.8218 67.932 43.2262 67.9017 43.6231 67.9186L43.5983 68.5082C43.247 68.4929 42.8883 68.5196 42.541 68.5865C42.1748 68.6569 41.8149 68.7737 41.4715 68.933ZM64.9512 66.0168C64.7407 65.2793 64.4729 64.5599 64.1558 63.8779L64.6904 63.6289C65.0208 64.3385 65.2997 65.0874 65.5183 65.8544L64.9512 66.0168Z" fill="white"/>
<path d="M62.9968 61.8581C62.7765 61.5415 62.5406 61.2335 62.2959 60.9417L62.7478 60.5625C63.0035 60.8673 63.2505 61.1899 63.4806 61.5207L62.9968 61.8581Z" fill="white"/>
<path d="M188.432 70.7875L191.701 69.6303C192.078 69.497 192.276 69.0832 192.143 68.706L188.258 57.7289C188.124 57.3517 187.711 57.1542 187.333 57.2879L184.064 58.4451C183.686 58.5785 183.489 58.9922 183.622 59.3695L187.507 70.3466C187.641 70.7238 188.054 70.9213 188.432 70.7875Z" fill="#111111"/>
<path d="M187.398 74.6239C187.562 73.8074 187.45 72.9609 187.078 72.2159C186.372 70.7999 185.262 68.4746 185.126 67.5884C185.031 66.9669 186.746 63.1992 187.289 63.4194C187.857 63.6499 186.106 66.5106 186.361 66.7124C186.507 66.8277 188.176 63.9083 188.676 64.3221C189.119 64.6879 186.979 67.1148 187.22 67.2733C187.365 67.3685 187.779 66.6452 188.283 66.3643C188.583 66.1976 189.947 65.7653 189.988 66.1354C190.036 66.5689 188.977 66.6743 188.625 66.9303C188.153 67.2725 187.895 67.82 187.97 67.8787C188.114 67.9904 188.725 67.3897 189.276 67.232C189.624 67.1321 190.777 67.2127 190.816 67.4432C190.882 67.8279 189.801 67.6855 189.462 67.8802C189.049 68.1186 188.505 68.4447 188.735 68.5945C191.498 70.4003 190.671 73.1753 190.671 73.1753L190.66 73.248L194.408 87.4855L196.655 81.5159L202.849 96.8575C202.849 96.8575 195.31 102.546 189.465 98.1091C184.497 94.3382 186.493 79.1402 187.398 74.6239Z" fill="#FFA69D"/>
<path d="M233.87 78.9538L233.584 78.8849C236.191 68.0282 230.068 64.5196 226.187 63.3947C221.566 62.0554 219.694 59.0755 219.675 59.0452L219.927 58.8906C219.945 58.9197 221.764 61.8052 226.269 63.1111C233.047 65.0758 235.817 70.8499 233.87 78.9538Z" fill="#111111"/>
<path d="M204.122 57.768C204.051 57.6268 202.397 54.2795 203.781 51.7764C204.579 50.3344 206.222 49.4856 208.665 49.2539L208.693 49.5477C206.353 49.7696 204.787 50.5672 204.04 51.9187C202.73 54.287 204.369 57.602 204.386 57.6351L204.122 57.768Z" fill="#111111"/>
<path d="M204.253 57.7036C204.253 57.7036 202.594 54.8177 205.005 51.2022C206.524 48.9232 212.118 48.1224 215.03 50.0304C217.067 51.3646 218.264 53.6884 219.516 57.5958C222.243 66.1079 233.174 63.3534 233.442 77.5468L212.285 74.467L204.253 57.7036Z" fill="#111111"/>
<path d="M208.286 196.814L207.591 189.688H200.059L201.695 196.607C201.695 196.607 202.567 198.927 205.099 198.841C207.534 198.759 208.286 196.814 208.286 196.814Z" fill="#FFA69D"/>
<path d="M240.079 196.814L239.384 189.688H231.852L233.748 196.866C233.748 196.866 234.449 198.529 236.892 198.841C239.308 199.15 240.079 196.814 240.079 196.814Z" fill="#FFA69D"/>
<path d="M213.541 192.734C213.541 192.734 204.268 195.679 193.69 191.796C193.69 191.796 186.539 143.442 200.037 106.609L216.178 108.138C216.178 108.138 207.553 152.828 213.541 192.734Z" fill="#1E2325"/>
<path d="M222.885 192.725C222.885 192.725 207.257 144.649 208.816 108.273L229.843 109.582C227.433 144.263 244.438 192.869 244.438 192.869C244.438 192.869 235.735 195.011 222.885 192.725Z" fill="#1E2325"/>
<path d="M194.837 85.2356C194.837 85.2356 198.645 69.8118 211.342 69.4802C235.85 68.8399 239.404 88.4196 239.404 88.4196C239.404 88.4196 234.973 95.5897 226.893 98.0221L199.7 91.1588C196.312 88.2048 194.837 85.2356 194.837 85.2356Z" fill="#999999"/>
<path d="M216.266 69.8863C215.214 66.9942 214.764 63.7555 214.893 60.1836L209.056 64.0076L208.303 71.0156C208.303 71.0156 209.615 72.373 211.723 72.2672C212.988 72.2035 214.539 71.6131 216.266 69.8863Z" fill="#FFA69D"/>
<path d="M208.561 68.442C212.591 67.1208 213.422 63.875 213.422 63.875L208.902 65.2643L208.561 68.442Z" fill="#111111"/>
<path d="M186.334 75.7985L192.293 75.8653L194.837 85.2385C194.837 85.2385 197.255 72.5515 208.427 69.8398L204.344 93.8749C204.344 93.8749 200.527 101.239 192.962 99.8335C185.397 98.4273 183.723 87.3137 186.334 75.7985Z" fill="#999999"/>
<path d="M212.665 53.2116C210.091 51.7854 205.687 51.6536 204.67 55.1913C203.732 58.4559 203.665 67.5679 207.897 67.3803C216.663 66.9917 215.423 54.7397 212.665 53.2116Z" fill="#FFA69D"/>
<path d="M176.85 19.9531H75.9102V191.126H176.85V19.9531Z" fill="white"/>
<path d="M176.826 12.4547V20.1125H75.8857V12.4547C75.8857 9.85397 77.9948 7.74609 80.5955 7.74609H172.117C174.718 7.74649 176.826 9.85397 176.826 12.4547Z" fill="#111111"/>
<path d="M75.8852 191.285H176.825V198.81C176.825 201.41 174.717 203.519 172.117 203.519H80.5945C77.9938 203.519 75.8848 201.41 75.8848 198.81V191.285H75.8852Z" fill="#111111"/>
<path d="M176.825 20.1133H176.306V191.347H176.825V20.1133Z" fill="#111111"/>
<path d="M139.466 13.9977H114.032C113.781 13.9977 113.578 13.7943 113.578 13.5438C113.578 13.2932 113.781 13.0898 114.032 13.0898H139.466C139.716 13.0898 139.92 13.2932 139.92 13.5438C139.92 13.7947 139.716 13.9977 139.466 13.9977Z" fill="#F2E9E8"/>
<path d="M164.923 122.737H87.6692C86.1651 122.737 84.9458 121.517 84.9458 120.013V52.7313C84.9458 51.2271 86.1651 50.0078 87.6692 50.0078H164.923C166.428 50.0078 167.647 51.2271 167.647 52.7313V120.014C167.647 121.518 166.428 122.737 164.923 122.737Z" fill="#6B6B6B"/>
<path d="M149.823 109.789L149.46 109.636C154.358 97.9634 148.149 92.9224 144.012 90.9566C139.066 88.606 137.554 85.0271 137.492 84.8756L137.856 84.7266C137.87 84.7624 139.38 88.32 144.181 90.6014C151.436 94.0489 153.493 101.043 149.823 109.789Z" fill="#111111"/>
<path d="M149.044 107.012L128.232 100.058L109.978 109.652C106.43 95.7906 115.867 95.1629 116.271 85.0802C116.48 79.8575 117.66 74.3339 120.823 72.4258C122.626 71.3387 124.916 71.8232 124.916 71.8232C127.527 69.5136 131.838 70.7919 133.552 72.4258C135.541 74.3201 136.949 77.4692 137.558 82.0633C138.888 92.0658 151.584 91.1886 149.044 107.012Z" fill="#111111"/>
<path d="M130.361 89.5625H122.704L121.56 98.9372C122.415 100.032 124.448 102.128 127.31 101.84C129.253 101.644 130.624 100.281 131.504 98.9781C131.613 98.9777 130.361 89.5625 130.361 89.5625Z" fill="#FFA69D"/>
<path d="M131.066 94.9988C125.418 97.3399 122.947 93.9344 122.947 93.9344L130.615 91.4922C130.747 92.5054 130.914 93.7845 131.066 94.9988Z" fill="#111111"/>
<path d="M133.871 78.5099C135.26 83.189 133.992 95.3253 126.652 95.3465C118.782 95.3693 118.406 82.1793 119.717 77.9419C121.404 72.4856 132.367 73.4394 133.871 78.5099Z" fill="#FFA69D"/>
<path d="M241.208 202.693H223.231C223.209 202.48 223.166 201.824 223.303 201.134C223.31 201.12 240.955 201.235 240.955 201.235L241.208 202.693Z" fill="#111111"/>
<path d="M240.955 201.234L223.311 201.119C223.48 199.292 225.772 198.433 227.912 197.889C228.056 197.852 228.197 197.82 228.338 197.784C228.645 197.712 228.945 197.647 229.229 197.582C229.377 197.549 229.522 197.517 229.659 197.488C230.399 197.322 231.012 197.181 231.366 197.015C231.683 196.864 232.07 196.643 232.406 196.441C232.521 196.373 232.626 196.304 232.723 196.243C233.04 196.044 233.268 195.892 233.268 195.892C234.423 196.271 236.163 197.358 239.981 195.629L240.097 196.293L240.162 196.668L240.955 201.234Z" fill="#111111"/>
<path d="M228.338 197.785C228.071 198.402 228.042 199.066 228.042 199.074L227.681 199.059C227.685 199.023 227.706 198.482 227.912 197.89C228.056 197.854 228.197 197.821 228.338 197.785Z" fill="white"/>
<path d="M229.659 197.488C229.363 198.127 229.334 198.835 229.334 198.842L228.973 198.831C228.973 198.791 228.998 198.203 229.229 197.582C229.377 197.55 229.521 197.517 229.659 197.488Z" fill="white"/>
<path d="M240.162 196.668C238.588 197.451 237.242 197.722 236.127 197.722C234.066 197.722 232.806 196.791 232.406 196.441C232.521 196.372 232.626 196.304 232.723 196.242C233.395 196.816 235.852 198.455 240.097 196.293L240.162 196.668Z" fill="white"/>
<path d="M240.955 200.922H223.31V201.315H240.955V200.922Z" fill="white"/>
<path d="M209.473 202.693H191.496C191.474 202.48 191.431 201.824 191.568 201.134C191.576 201.12 209.221 201.235 209.221 201.235L209.473 202.693Z" fill="#111111"/>
<path d="M209.221 201.234L191.576 201.119C191.745 199.292 194.037 198.433 196.177 197.889C196.322 197.852 196.462 197.82 196.603 197.784C196.91 197.712 197.21 197.647 197.495 197.582C197.642 197.549 197.787 197.517 197.924 197.488C198.664 197.322 199.278 197.181 199.631 197.015C199.949 196.864 200.335 196.643 200.671 196.441C200.786 196.373 200.891 196.304 200.988 196.243C201.306 196.044 201.533 195.892 201.533 195.892C202.688 196.271 204.428 197.358 208.246 195.629L208.362 196.293L208.427 196.668L209.221 201.234Z" fill="#111111"/>
<path d="M196.603 197.785C196.336 198.402 196.307 199.066 196.307 199.074L195.946 199.059C195.95 199.023 195.971 198.482 196.177 197.89C196.322 197.854 196.462 197.821 196.603 197.785Z" fill="white"/>
<path d="M197.924 197.488C197.628 198.127 197.599 198.835 197.599 198.842L197.238 198.831C197.238 198.791 197.263 198.203 197.494 197.582C197.642 197.55 197.787 197.517 197.924 197.488Z" fill="white"/>
<path d="M208.427 196.668C206.853 197.451 205.507 197.722 204.392 197.722C202.331 197.722 201.071 196.791 200.671 196.441C200.787 196.372 200.891 196.304 200.988 196.242C201.66 196.816 204.117 198.455 208.362 196.293L208.427 196.668Z" fill="white"/>
<path d="M209.072 200.922H191.576V201.315H209.072V200.922Z" fill="white"/>
<path d="M226.85 98.0255L227.233 97.9523C226.141 92.2663 223.873 87.8991 223.85 87.8555L223.506 88.036C223.528 88.0789 225.77 92.3985 226.85 98.0255Z" fill="#111111"/>
<path d="M213.945 58.1176C208.286 58.0295 207.349 54.3475 207.349 54.3475C205.005 53.1423 204.254 57.7023 204.254 57.7023C204.254 57.7023 202.93 54.5485 204.714 52.3887C205.479 51.4624 207.035 50.6179 209.36 50.3497C212.9 49.9414 215.162 50.8705 216.337 53.6112C218.175 57.9001 215.784 60.0383 215.784 60.0383L213.945 58.1176Z" fill="#111111"/>
<path d="M134.306 82.7684C127.283 83.5692 124.615 77.9981 124.615 77.9981C119.895 75.9394 118.891 82.2661 118.891 82.2661C118.891 82.2661 117.829 79.2418 119.272 76.2713C121.753 71.169 131.997 72.9107 133.845 75.793C136.738 80.3034 135.31 83.5716 135.31 83.5716L134.306 82.7684Z" fill="#111111"/>
<path d="M212.71 58.3746C210.793 58.3746 209.33 57.9085 208.349 56.9834C207.046 55.7554 207.097 54.1837 207.1 54.1172L207.395 54.1294C207.394 54.1443 207.35 55.6394 208.555 56.7726C209.698 57.8476 211.557 58.2625 214.08 58.0065L214.11 58.2999C213.62 58.3498 213.152 58.3746 212.71 58.3746Z" fill="#111111"/>
<path d="M213.268 61.409C213.268 61.409 215.827 61.8492 216.063 59.9171C216.275 58.1739 214.185 57.6763 213.201 58.5145L213.268 61.409Z" fill="#FFA69D"/>
<path d="M130.988 83.4844C129.611 83.4844 128.408 83.1568 127.392 82.5027C124.873 80.8814 124.437 77.868 124.419 77.7406L124.809 77.6875C124.813 77.717 125.241 80.6536 127.608 82.1743C129.282 83.2496 131.516 83.379 134.248 82.5585L134.362 82.9354C133.143 83.3012 132.017 83.4844 130.988 83.4844Z" fill="#111111"/>
<path d="M228.544 89.4369C229.934 103.804 231.852 112.274 231.852 112.274C219.734 113.613 204.652 112.457 195.431 107.871L201.177 82.2956L208.219 70.5786C208.219 70.5786 211.554 73.9742 215.985 69.4375L226.764 75.6286L228.544 89.4369Z" fill="white"/>
<path d="M209.105 68.5792C210.124 68.7691 212.46 68.884 215.082 66.8595C215.381 66.6294 215.816 66.7793 215.898 67.147L216.537 70.014C216.537 70.014 212.068 74.6908 208.302 71.0135L208.501 69.0299C208.531 68.7306 208.809 68.5241 209.105 68.5792Z" fill="white"/>
<path d="M116.461 82.8215C116.42 82.5359 115.507 75.7934 118.781 72.8316C120.244 71.5081 122.316 71.1631 124.937 71.807L124.843 72.1889C122.356 71.5781 120.405 71.8923 119.045 73.1235C115.924 75.9468 116.841 82.6984 116.85 82.7664L116.461 82.8215Z" fill="#111111"/>
<path d="M222.697 192.787C222.586 192.444 211.514 158.099 209.016 125.874L209.407 125.844C211.903 158.022 222.96 192.323 223.071 192.666L222.697 192.787Z" fill="white"/>
<path d="M210.769 193.162C210.769 193.162 210.717 192.75 210.631 191.989L211.022 191.945C211.107 192.701 211.159 193.112 211.159 193.113L210.769 193.162Z" fill="white"/>
<path d="M210.387 189.693C210.317 189.012 210.243 188.242 210.166 187.394L210.557 187.358C210.634 188.205 210.709 188.973 210.778 189.654L210.387 189.693ZM209.967 185.094C209.907 184.364 209.846 183.595 209.787 182.792L210.179 182.763C210.238 183.565 210.299 184.332 210.358 185.062L209.967 185.094ZM209.627 180.488C209.578 179.742 209.532 178.973 209.487 178.184L209.88 178.161C209.924 178.949 209.971 179.717 210.019 180.463L209.627 180.488ZM209.368 175.877C209.332 175.122 209.299 174.352 209.27 173.571L209.663 173.556C209.692 174.336 209.725 175.105 209.76 175.859L209.368 175.877ZM209.195 171.262C209.173 170.501 209.156 169.732 209.142 168.954L209.536 168.947C209.549 169.723 209.567 170.492 209.588 171.251L209.195 171.262ZM209.116 166.646C209.113 166.256 209.112 165.864 209.112 165.471C209.112 165.094 209.113 164.716 209.116 164.337L209.509 164.34C209.507 164.718 209.506 165.095 209.506 165.471C209.506 165.863 209.507 166.254 209.509 166.644L209.116 166.646ZM209.537 162.036L209.144 162.028C209.159 161.26 209.179 160.489 209.204 159.719L209.597 159.732C209.572 160.5 209.552 161.269 209.537 162.036ZM209.691 157.43L209.298 157.411C209.336 156.639 209.38 155.87 209.43 155.104L209.823 155.13C209.773 155.894 209.729 156.661 209.691 157.43ZM209.995 152.833L209.604 152.8C209.669 152.026 209.743 151.259 209.824 150.498L210.215 150.54C210.134 151.298 210.061 152.063 209.995 152.833ZM210.487 148.253L210.097 148.202C210.2 147.427 210.312 146.657 210.431 145.914L210.82 145.976C210.701 146.716 210.589 147.482 210.487 148.253Z" fill="white"/>
<path d="M211.221 143.716L210.834 143.64C210.911 143.25 210.99 142.862 211.073 142.48L211.457 142.563C211.375 142.943 211.297 143.327 211.221 143.716Z" fill="white"/>
<path d="M241.509 193.203C241.509 193.203 241.366 192.815 241.11 192.092L241.481 191.961C241.736 192.68 241.878 193.067 241.878 193.068L241.509 193.203Z" fill="white"/>
<path d="M240.369 189.961C240.152 189.328 239.91 188.611 239.646 187.82L240.02 187.696C240.282 188.487 240.524 189.202 240.741 189.834L240.369 189.961ZM238.942 185.673C238.722 184.992 238.492 184.274 238.255 183.521L238.63 183.403C238.867 184.155 239.097 184.872 239.316 185.552L238.942 185.673ZM237.583 181.365C237.369 180.667 237.15 179.946 236.928 179.204L237.305 179.091C237.527 179.832 237.745 180.552 237.959 181.25L237.583 181.365ZM236.289 177.036C236.084 176.327 235.876 175.602 235.668 174.864L236.047 174.758C236.254 175.495 236.462 176.218 236.667 176.927L236.289 177.036ZM235.064 172.688C234.868 171.971 234.672 171.243 234.478 170.507L234.858 170.406C235.053 171.142 235.248 171.869 235.443 172.584L235.064 172.688ZM233.911 168.32C233.727 167.596 233.544 166.865 233.364 166.128L233.746 166.035C233.926 166.771 234.109 167.501 234.292 168.223L233.911 168.32ZM232.838 163.931C232.667 163.201 232.5 162.466 232.335 161.728L232.72 161.643C232.883 162.379 233.051 163.112 233.222 163.841L232.838 163.931ZM231.857 159.522C231.701 158.786 231.55 158.048 231.404 157.309L231.79 157.232C231.936 157.97 232.087 158.706 232.241 159.44L231.857 159.522ZM230.978 155.089C230.842 154.347 230.71 153.604 230.584 152.863L230.972 152.797C231.097 153.537 231.229 154.278 231.366 155.018L230.978 155.089Z" fill="white"/>
<path d="M230.225 150.646C230.166 150.257 230.107 149.868 230.051 149.479L230.44 149.422C230.496 149.809 230.554 150.198 230.614 150.586L230.225 150.646Z" fill="white"/>
<path d="M218.083 109.388C210.294 109.388 203.72 108.244 197.578 105.887L197.718 105.52C206.57 108.916 216.338 109.775 229.391 108.304L229.434 108.695C225.358 109.155 221.596 109.388 218.083 109.388Z" fill="#111111"/>
<path d="M217.932 105.457C210.143 105.457 203.569 104.314 197.426 101.957L197.567 101.59C206.419 104.985 216.186 105.845 229.24 104.374L229.284 104.765C225.206 105.225 221.444 105.457 217.932 105.457Z" fill="#111111"/>
<path d="M217.794 101.535C217.61 101.535 217.428 101.535 217.246 101.533C212.891 101.503 208.949 101.112 205.197 100.339C202.616 99.8078 200.096 99.0856 197.708 98.1924L197.846 97.8242C200.215 98.71 202.715 99.4267 205.277 99.9537C209.003 100.722 212.92 101.109 217.25 101.139C220.838 101.169 224.713 100.938 229.091 100.447L229.134 100.838C224.962 101.306 221.246 101.535 217.794 101.535Z" fill="#111111"/>
<path d="M217.666 97.6027C217.459 97.6027 217.253 97.6015 217.048 97.6004C212.887 97.5709 209.108 97.2102 205.495 96.4971C203.018 96.0113 200.581 95.3442 198.25 94.515L198.383 94.1445C200.694 94.9674 203.113 95.6294 205.571 96.1112C209.159 96.8196 212.914 97.1779 217.051 97.2074C220.682 97.2357 224.57 97.0104 228.939 96.5167L228.982 96.9077C224.845 97.3746 221.135 97.6027 217.666 97.6027Z" fill="#111111"/>
<path d="M217.454 93.6745C217.252 93.6745 217.05 93.6737 216.849 93.6722C212.877 93.6395 209.261 93.3068 205.794 92.6554C203.391 92.2039 201.035 91.5883 198.792 90.8252L198.919 90.4531C201.144 91.2099 203.481 91.8207 205.866 92.2691C209.31 92.9166 212.904 93.2466 216.852 93.2792C220.499 93.3048 224.402 93.0806 228.787 92.5866L228.831 92.9775C224.673 93.4456 220.943 93.6745 217.454 93.6745Z" fill="#111111"/>
<path d="M217.401 89.739C217.169 89.739 216.939 89.7378 216.71 89.7358H216.653C212.913 89.7071 209.485 89.405 206.171 88.8123L206.097 88.8005C203.835 88.4016 201.587 87.8451 199.416 87.1457L199.379 87.1351L199.451 86.7461L199.537 86.7713C201.691 87.4651 203.922 88.0173 206.166 88.413L206.241 88.4248C209.533 89.0137 212.939 89.3138 216.655 89.3421H216.712C220.277 89.3763 224.181 89.1494 228.636 88.651L228.68 89.042C224.495 89.51 220.796 89.739 217.401 89.739Z" fill="#111111"/>
<path d="M217.308 85.8052C217.095 85.8052 216.883 85.804 216.672 85.8024H216.453C212.967 85.7741 209.753 85.5078 206.627 84.9894L206.691 84.6016C209.797 85.1168 212.991 85.3812 216.455 85.4091H216.673C220.272 85.4394 224.13 85.214 228.483 84.7219L228.527 85.1129C224.413 85.5778 220.735 85.8052 217.308 85.8052Z" fill="#111111"/>
<path d="M215.977 81.8589C212.818 81.8589 209.901 81.6623 207.072 81.2587L207.127 80.8693C210.023 81.2823 213.012 81.477 216.263 81.4652C216.38 81.4648 216.504 81.4652 216.628 81.4613C220.201 81.4353 224.029 81.1588 228.335 80.6172L228.384 81.0074C224.063 81.5514 220.22 81.8283 216.636 81.8546C216.417 81.8617 216.197 81.8593 215.977 81.8589Z" fill="#111111"/>
<path d="M214.548 77.9571C212.068 77.9571 209.76 77.832 207.514 77.5787L207.558 77.1877C210.254 77.4918 213.039 77.6094 216.075 77.5484C216.265 77.5441 216.426 77.5402 216.585 77.5327C220.133 77.4355 223.923 77.0886 228.174 76.4727L228.23 76.8617C223.964 77.48 220.16 77.8281 216.6 77.926C216.441 77.9331 216.278 77.937 216.118 77.941C215.587 77.9516 215.064 77.9571 214.548 77.9571Z" fill="#111111"/>
<path d="M214.105 73.9933C211.979 73.9933 209.961 73.8989 207.978 73.7078L208.015 73.3164C210.525 73.5579 213.092 73.6444 215.866 73.5788C216.094 73.5748 216.321 73.567 216.548 73.5595L216.562 73.9524C216.333 73.9603 216.103 73.9682 215.874 73.9721C215.276 73.9862 214.686 73.9933 214.105 73.9933Z" fill="#111111"/>
<path d="M234.99 117.291C228.127 117.543 216.976 115.375 216.976 115.375L216.512 69.6641L228.63 76.5258L234.99 117.291Z" fill="#999999"/>
<path d="M208.428 69.8398L203.374 112.572C199.771 111.588 196.978 110.609 195.153 109.905L200.51 81.4656L208.428 69.8398Z" fill="#999999"/>
<path d="M192.437 75.8254L192.152 75.9023L195.491 88.2631L195.776 88.1862L192.437 75.8254Z" fill="#111111"/>
<path d="M227.358 110.359C226.697 112.136 225.742 113.857 224.415 115.455C224.106 115.828 223.247 116.873 222.796 117.048C222.378 117.211 220.009 117.8 220.179 118.291C220.358 118.806 221.905 118.061 221.976 118.491C222.02 118.756 219.013 120.267 219.448 120.758C219.733 121.081 221.429 119.919 221.514 120.141C221.593 120.347 219.203 121.344 219.602 121.843C220.019 122.366 222.113 120.403 222.291 120.656C222.38 120.78 219.686 122.421 220.022 122.82C220.471 123.354 222.402 121.418 222.627 121.643C222.738 121.754 221.934 122.316 221.498 122.712C221.256 122.931 221.394 123.161 221.609 123.107C223.835 122.547 226.095 119.236 226.429 119.034C228.741 117.631 230.683 116.126 232.305 114.555L227.358 110.359Z" fill="#FFA69D"/>
<path d="M224.229 115.08C224.229 115.08 228.823 108.999 227.015 97.8324L239.326 88.1328C239.326 88.1328 244.372 110.185 228.706 118.419L224.229 115.08Z" fill="#999999"/>
<path d="M228.617 118.537L224.004 115.097L224.123 114.976C224.184 114.914 230.155 108.564 225.424 90.2693L225.71 90.1953C230.126 107.273 225.257 114.073 224.444 115.056L228.794 118.3L228.617 118.537Z" fill="#111111"/>
<path d="M97.437 122.767C97.437 122.767 99.2798 101.555 121.56 98.9336H131.716C131.716 98.9336 155.759 101.666 155.759 122.767H97.437Z" fill="white"/>
<path d="M121.56 98.9352L121.97 95.6992C125.218 97.4122 128.282 97.4456 131.142 95.6992L131.715 98.9352C131.715 98.9352 130.539 102.151 126.455 102.218C122.838 102.278 121.56 98.9352 121.56 98.9352Z" fill="white"/>
<path d="M199.983 83.7159L196.961 99.6484L197.251 99.7033L200.272 83.7708L199.983 83.7159Z" fill="#111111"/>
<path d="M226.653 96.8258C226.131 94.5094 224.454 92.319 224.438 92.2973L224.671 92.1172C224.742 92.2084 226.404 94.38 226.941 96.7613L226.653 96.8258Z" fill="#111111"/>
<path d="M127.771 121.141C121.644 121.141 116.213 120.311 111.032 118.636L111.153 118.262C120.175 121.179 129.975 121.513 142.93 119.345L142.995 119.733C137.399 120.669 132.387 121.141 127.771 121.141Z" fill="#111111"/>
<path d="M127.419 117.226C124.364 117.226 121.489 117.018 118.705 116.598C116.099 116.206 113.544 115.62 111.111 114.855L111.229 114.48C113.643 115.238 116.178 115.82 118.763 116.209C122.526 116.776 126.458 116.954 130.783 116.752C134.368 116.585 138.223 116.151 142.569 115.426L142.634 115.813C138.272 116.541 134.401 116.977 130.801 117.145C129.648 117.199 128.522 117.226 127.419 117.226Z" fill="#111111"/>
<path d="M127.046 113.308C124.163 113.308 121.442 113.122 118.797 112.746C116.295 112.393 113.825 111.857 111.456 111.155L111.568 110.777C113.919 111.475 116.369 112.006 118.852 112.357C122.473 112.872 126.243 113.028 130.373 112.836C134 112.67 137.871 112.236 142.208 111.51L142.273 111.898C137.921 112.627 134.034 113.062 130.392 113.229C129.251 113.282 128.137 113.308 127.046 113.308Z" fill="#111111"/>
<path d="M126.703 109.393C123.979 109.393 121.4 109.228 118.89 108.894C116.464 108.571 114.078 108.082 111.8 107.441L111.906 107.062C114.167 107.699 116.534 108.184 118.942 108.504C122.415 108.965 126.021 109.103 129.966 108.924C133.607 108.756 137.493 108.321 141.846 107.593L141.911 107.981C137.542 108.711 133.641 109.148 129.983 109.316C128.864 109.368 127.772 109.393 126.703 109.393Z" fill="#111111"/>
<path d="M126.338 105.476C123.818 105.476 121.416 105.331 119.061 105.039L118.988 105.032C116.706 104.755 114.431 104.319 112.226 103.737L112.188 103.728L112.239 103.336L112.326 103.357C114.514 103.935 116.771 104.366 119.034 104.641L119.108 104.649C122.43 105.061 125.847 105.178 129.558 105.008L129.615 105.004C133.184 104.846 137.066 104.411 141.485 103.675L141.549 104.063C137.115 104.802 133.217 105.238 129.635 105.397L129.575 105.401C128.472 105.451 127.395 105.476 126.338 105.476Z" fill="#111111"/>
<path d="M126.771 101.588C121.113 101.588 116.095 100.751 112.229 99.8058L112.188 99.7959L112.24 99.4038L112.323 99.4235C119.219 101.11 129.815 102.45 141.131 99.25L141.239 99.6284C136.186 101.057 131.275 101.588 126.771 101.588Z" fill="#111111"/>
<path d="M121.56 98.9336L119.71 122.704L97.437 122.766C97.437 122.766 98.7881 100.203 121.56 98.9336Z" fill="#999999"/>
<path d="M131.715 98.9336L133.565 122.704L155.838 122.766C155.838 122.766 156.65 101.146 131.715 98.9336Z" fill="#999999"/>
<path d="M109.136 122.741L108.763 122.707C108.777 122.548 109.127 118.763 110.149 116.344L110.495 116.49C109.495 118.855 109.14 122.703 109.136 122.741Z" fill="#111111"/>
<path d="M145.097 122.747C145.093 122.708 144.758 118.858 143.773 116.488L144.119 116.344C145.127 118.769 145.457 122.555 145.47 122.715L145.097 122.747Z" fill="#111111"/>
<path d="M106.079 75.905H105.289V67.1293C105.289 64.4389 107.593 62.25 110.426 62.25H119.669V63.0009H110.426C108.029 63.0009 106.079 64.8531 106.079 67.1297L106.079 75.905Z" fill="white"/>
<path d="M119.668 102.733H110.425C107.592 102.733 105.288 100.544 105.288 97.8534V89.0742H106.078V97.8534C106.078 100.13 108.028 101.982 110.425 101.982H119.667V102.733H119.668Z" fill="white"/>
<path d="M147.907 75.9054H147.116V67.1297C147.116 64.8531 145.166 63.0009 142.77 63.0009H133.531V62.25H142.77C145.603 62.25 147.907 64.4389 147.907 67.1293L147.907 75.9054Z" fill="white"/>
<path d="M142.769 102.729H133.53V101.978H142.769C145.166 101.978 147.116 100.126 147.116 97.8495V89.0703H147.906V97.8495C147.907 100.54 145.602 102.729 142.769 102.729Z" fill="white"/>
<path d="M164.924 122.937H93.1816V122.543H164.924C166.317 122.543 167.45 121.41 167.45 120.017V81.4648H167.844V120.017C167.843 121.627 166.534 122.937 164.924 122.937Z" fill="#111111"/>
<path d="M157.843 125.297H116.681V125.69H157.843V125.297Z" fill="#111111"/>
<path d="M212.569 49.3127C212.569 49.3127 211.833 46.3493 214.211 46.7954C214.211 46.7954 215.92 45.4997 217.213 46.9314C218.666 48.5414 216.61 50.6779 215.185 51.0005L212.569 49.3127Z" fill="#111111"/>
<path d="M212.441 49.3867C212.431 49.3682 211.41 47.5353 212.648 46.583C213.425 45.9848 214.149 46.4458 214.424 46.7726L214.199 46.9626C214.173 46.9327 213.573 46.2432 212.828 46.8167C211.793 47.6124 212.689 49.2247 212.698 49.2412L212.441 49.3867Z" fill="#111111"/>
<path d="M215.676 51.2265L215.59 50.9441C215.604 50.9402 216.925 50.5268 217.437 49.5281C217.681 49.051 217.703 48.5094 217.502 47.919L217.782 47.8242C218.009 48.4937 217.981 49.1128 217.698 49.6642C217.129 50.775 215.735 51.2088 215.676 51.2265Z" fill="#111111"/>
<path d="M123.862 71.9215C123.862 71.9215 121.056 69.3565 123.828 68.1797C123.828 68.1797 124.707 65.6576 127.034 66.2504C129.651 66.9167 128.993 70.5503 127.738 71.8668L123.862 71.9215Z" fill="#111111"/>
<path d="M123.796 72.0549C123.773 72.0431 121.479 70.8612 122.095 69.0499C122.576 67.6382 124.008 68.0402 124.022 68.0441L123.94 68.3273C123.892 68.3143 122.763 68.0032 122.374 69.1447C121.84 70.7129 123.908 71.7808 123.929 71.7914L123.796 72.0549Z" fill="#111111"/>
<path d="M128.374 71.7398L128.147 71.5522C128.158 71.5388 129.252 70.1881 129.092 68.7843C129.015 68.1109 128.66 67.526 128.037 67.0465L128.216 66.8125C128.906 67.3431 129.3 67.9956 129.386 68.7524C129.559 70.2817 128.423 71.6808 128.374 71.7398Z" fill="#111111"/>
<path d="M261.488 202.777H8.41602V203.296H261.488V202.777Z" fill="#111111"/>
</svg>
