<svg width="22" height="22" viewBox="0 0 22 22" fill="none" xmlns="http://www.w3.org/2000/svg">
<path d="M10.9998 6.41667C12.0124 6.41667 12.8332 5.59586 12.8332 4.58333C12.8332 3.57081 12.0124 2.75 10.9998 2.75C9.98732 2.75 9.1665 3.57081 9.1665 4.58333C9.1665 5.59586 9.98732 6.41667 10.9998 6.41667Z" fill="black"/>
<path d="M10.9998 19.2487C12.0124 19.2487 12.8332 18.4279 12.8332 17.4154C12.8332 16.4028 12.0124 15.582 10.9998 15.582C9.98732 15.582 9.1665 16.4028 9.1665 17.4154C9.1665 18.4279 9.98732 19.2487 10.9998 19.2487Z" fill="black"/>
<path d="M10.9998 12.8346C12.0124 12.8346 12.8332 12.0138 12.8332 11.0013C12.8332 9.98878 12.0124 9.16797 10.9998 9.16797C9.98732 9.16797 9.1665 9.98878 9.1665 11.0013C9.1665 12.0138 9.98732 12.8346 10.9998 12.8346Z" fill="black"/>
</svg>
