<svg width="22" height="22" viewBox="0 0 22 22" fill="none" xmlns="http://www.w3.org/2000/svg">
<g clip-path="url(#clip0_1327_11412)">
<path d="M17.4806 4.5185C15.9765 3.00462 13.9914 2.06294 11.8675 1.8558C9.74355 1.64866 7.61389 2.18904 5.84568 3.38378C4.07746 4.57852 2.78149 6.35275 2.18119 8.40059C1.58089 10.4484 1.71389 12.6415 2.55724 14.6018C2.64514 14.784 2.67398 14.9891 2.63974 15.1885L1.83308 19.066C1.802 19.2147 1.80834 19.3687 1.85154 19.5143C1.89474 19.6599 1.97345 19.7925 2.08058 19.9002C2.1684 19.9873 2.27296 20.0558 2.38796 20.1015C2.50297 20.1472 2.62603 20.1691 2.74974 20.166H2.93308L6.85641 19.3777C7.05581 19.3537 7.25802 19.3821 7.44308 19.4602C9.40337 20.3035 11.5965 20.4365 13.6443 19.8362C15.6922 19.2359 17.4664 17.9399 18.6611 16.1717C19.8559 14.4035 20.3962 12.2739 20.1891 10.1499C19.982 8.02599 19.0403 6.04088 17.5264 4.53683L17.4806 4.5185ZM7.33308 11.916C7.15178 11.916 6.97455 11.8622 6.8238 11.7615C6.67306 11.6608 6.55557 11.5176 6.48619 11.3501C6.41681 11.1826 6.39865 10.9983 6.43402 10.8205C6.46939 10.6427 6.5567 10.4793 6.68489 10.3511C6.81309 10.223 6.97643 10.1356 7.15424 10.1003C7.33206 10.0649 7.51637 10.0831 7.68387 10.1524C7.85137 10.2218 7.99453 10.3393 8.09526 10.4901C8.19598 10.6408 8.24974 10.818 8.24974 10.9993C8.24974 11.2424 8.15316 11.4756 7.98126 11.6475C7.80935 11.8194 7.57619 11.916 7.33308 11.916ZM10.9997 11.916C10.8184 11.916 10.6412 11.8622 10.4905 11.7615C10.3397 11.6608 10.2222 11.5176 10.1529 11.3501C10.0835 11.1826 10.0653 10.9983 10.1007 10.8205C10.1361 10.6427 10.2234 10.4793 10.3516 10.3511C10.4798 10.223 10.6431 10.1356 10.8209 10.1003C10.9987 10.0649 11.183 10.0831 11.3505 10.1524C11.518 10.2218 11.6612 10.3393 11.7619 10.4901C11.8626 10.6408 11.9164 10.818 11.9164 10.9993C11.9164 11.2424 11.8198 11.4756 11.6479 11.6475C11.476 11.8194 11.2429 11.916 10.9997 11.916ZM14.6664 11.916C14.4851 11.916 14.3079 11.8622 14.1571 11.7615C14.0064 11.6608 13.8889 11.5176 13.8195 11.3501C13.7501 11.1826 13.732 10.9983 13.7674 10.8205C13.8027 10.6427 13.89 10.4793 14.0182 10.3511C14.1464 10.223 14.3098 10.1356 14.4876 10.1003C14.6654 10.0649 14.8497 10.0831 15.0172 10.1524C15.1847 10.2218 15.3279 10.3393 15.4286 10.4901C15.5293 10.6408 15.5831 10.818 15.5831 10.9993C15.5831 11.2424 15.4865 11.4756 15.3146 11.6475C15.1427 11.8194 14.9095 11.916 14.6664 11.916Z" fill="white"/>
</g>
<defs>
<clipPath id="clip0_1327_11412">
<rect width="22" height="22" fill="white"/>
</clipPath>
</defs>
</svg>
