<svg width="22" height="22" viewBox="0 0 22 22" fill="none" xmlns="http://www.w3.org/2000/svg">
<g clip-path="url(#clip0_1327_20522)">
<path d="M16.5 13.7483C15.7799 13.7489 15.0887 14.032 14.575 14.5367L7.33332 11.31V10.9983V10.6958L14.575 7.45999C15.0286 7.90459 15.6221 8.17848 16.2547 8.23514C16.8873 8.29179 17.52 8.12773 18.0454 7.7708C18.5707 7.41388 18.9564 6.8861 19.1367 6.27712C19.3171 5.66813 19.2812 5.01547 19.0349 4.43C18.7887 3.84453 18.3474 3.36234 17.786 3.06532C17.2246 2.7683 16.5777 2.67477 15.9551 2.80062C15.3326 2.92646 14.7728 3.26392 14.3708 3.75568C13.9688 4.24744 13.7495 4.86318 13.75 5.49833V5.80999L6.50832 9.03666C6.12182 8.65693 5.63175 8.39984 5.09965 8.29767C4.56754 8.19549 4.01711 8.25278 3.51745 8.46234C3.01779 8.6719 2.59117 9.02439 2.29114 9.47557C1.99111 9.92674 1.83105 10.4565 1.83105 10.9983C1.83105 11.5402 1.99111 12.0699 2.29114 12.5211C2.59117 12.9723 3.01779 13.3248 3.51745 13.5343C4.01711 13.7439 4.56754 13.8012 5.09965 13.699C5.63175 13.5968 6.12182 13.3397 6.50832 12.96L13.75 16.1958V16.4983C13.75 17.0422 13.9113 17.5739 14.2134 18.0261C14.5156 18.4784 14.9451 18.8309 15.4476 19.039C15.9501 19.2471 16.503 19.3016 17.0365 19.1955C17.5699 19.0894 18.0599 18.8275 18.4445 18.4429C18.8291 18.0583 19.091 17.5683 19.1971 17.0348C19.3033 16.5014 19.2488 15.9484 19.0407 15.4459C18.8325 14.9434 18.48 14.514 18.0278 14.2118C17.5756 13.9096 17.0439 13.7483 16.5 13.7483Z" fill="#111111"/>
</g>
<defs>
<clipPath id="clip0_1327_20522">
<rect width="22" height="22" fill="white"/>
</clipPath>
</defs>
</svg>
