<svg width="26" height="26" viewBox="0 0 26 26" fill="none" xmlns="http://www.w3.org/2000/svg">
<g clip-path="url(#clip0_1327_10159)">
<path d="M5.41683 10.8346C4.76683 10.8346 4.3335 10.4013 4.3335 9.7513C4.3335 5.5263 7.69183 2.16797 11.9168 2.16797C15.1668 2.16797 18.0918 4.33464 19.1752 7.4763C19.2835 8.01797 19.0668 8.66797 18.4168 8.7763C17.8752 8.99297 17.2252 8.66797 17.0085 8.1263C16.3585 5.8513 14.3002 4.33464 11.9168 4.33464C8.8835 4.33464 6.50016 6.71797 6.50016 9.7513C6.50016 10.4013 6.06683 10.8346 5.41683 10.8346Z" fill="#008BE1"/>
<path d="M19.5002 19.5C18.8502 19.5 18.4168 19.0667 18.4168 18.4167C18.4168 17.7667 18.8502 17.3333 19.5002 17.3333C21.8835 17.3333 23.8335 15.3833 23.8335 13C23.8335 10.6167 21.8835 8.66667 19.5002 8.66667C19.1752 8.66667 18.7418 8.66667 18.4168 8.775C17.8752 8.88333 17.2252 8.55833 17.1168 8.01667C17.0085 7.475 17.3335 6.825 17.8752 6.71667C18.4168 6.60833 18.9585 6.5 19.5002 6.5C23.0752 6.5 26.0002 9.425 26.0002 13C26.0002 16.575 23.0752 19.5 19.5002 19.5ZM8.66683 19.5H5.41683C4.76683 19.5 4.3335 19.0667 4.3335 18.4167C4.3335 17.7667 4.76683 17.3333 5.41683 17.3333H8.66683C9.31683 17.3333 9.75016 17.7667 9.75016 18.4167C9.75016 19.0667 9.31683 19.5 8.66683 19.5Z" fill="#008BE1"/>
<path d="M19.5 19.5013H17.3333C16.6833 19.5013 16.25 19.068 16.25 18.418C16.25 17.768 16.6833 17.3346 17.3333 17.3346H19.5C20.15 17.3346 20.5833 17.768 20.5833 18.418C20.5833 19.068 20.15 19.5013 19.5 19.5013ZM5.41667 19.5013C2.38333 19.5013 0 17.118 0 14.0846C0 11.0513 2.38333 8.66797 5.41667 8.66797C6.06667 8.66797 6.5 9.1013 6.5 9.7513C6.5 10.4013 6.06667 10.8346 5.41667 10.8346C3.575 10.8346 2.16667 12.243 2.16667 14.0846C2.16667 15.9263 3.575 17.3346 5.41667 17.3346C6.06667 17.3346 6.5 17.768 6.5 18.418C6.5 19.068 6.06667 19.5013 5.41667 19.5013ZM13 23.8346C12.35 23.8346 11.9167 23.4013 11.9167 22.7513V11.918C11.9167 11.268 12.35 10.8346 13 10.8346C13.65 10.8346 14.0833 11.268 14.0833 11.918V22.7513C14.0833 23.4013 13.65 23.8346 13 23.8346Z" fill="#008BE1"/>
<path d="M9.74984 16.2487C9.42484 16.2487 9.20817 16.1404 8.9915 15.9237C8.55817 15.4904 8.55817 14.8404 8.9915 14.407L12.2415 11.157C12.6748 10.7237 13.3248 10.7237 13.7582 11.157C14.1915 11.5904 14.1915 12.2404 13.7582 12.6737L10.5082 15.9237C10.2915 16.1404 10.0748 16.2487 9.74984 16.2487Z" fill="#008BE1"/>
<path d="M16.2498 16.2487C15.9248 16.2487 15.7082 16.1404 15.4915 15.9237L12.2415 12.6737C11.8082 12.2404 11.8082 11.5904 12.2415 11.157C12.6748 10.7237 13.3248 10.7237 13.7582 11.157L17.0082 14.407C17.4415 14.8404 17.4415 15.4904 17.0082 15.9237C16.7915 16.1404 16.5748 16.2487 16.2498 16.2487Z" fill="#008BE1"/>
</g>
<defs>
<clipPath id="clip0_1327_10159">
<rect width="26" height="26" fill="white"/>
</clipPath>
</defs>
</svg>
