<svg width="22" height="22" viewBox="0 0 22 22" fill="none" xmlns="http://www.w3.org/2000/svg">
<path d="M11.0001 1.51562C5.76258 1.51562 1.51733 5.76087 1.51733 10.9984C1.51733 16.2359 5.76258 20.4811 11.0001 20.4811C16.2376 20.4811 20.4829 16.2359 20.4829 10.9984C20.4829 5.76087 16.2376 1.51562 11.0001 1.51562ZM15.9311 11.757H11.7587V15.9294C11.7587 16.1306 11.6788 16.3236 11.5365 16.4658C11.3942 16.6081 11.2013 16.688 11.0001 16.688C10.7989 16.688 10.6059 16.6081 10.4637 16.4658C10.3214 16.3236 10.2415 16.1306 10.2415 15.9294V11.757H6.06906C5.86786 11.757 5.6749 11.6771 5.53263 11.5348C5.39036 11.3925 5.31044 11.1996 5.31044 10.9984C5.31044 10.7972 5.39036 10.6042 5.53263 10.462C5.6749 10.3197 5.86786 10.2398 6.06906 10.2398H10.2415V6.06735C10.2415 5.86615 10.3214 5.67319 10.4637 5.53092C10.6059 5.38865 10.7989 5.30873 11.0001 5.30873C11.2013 5.30873 11.3942 5.38865 11.5365 5.53092C11.6788 5.67319 11.7587 5.86615 11.7587 6.06735V10.2398H15.9311C16.1323 10.2398 16.3253 10.3197 16.4676 10.462C16.6098 10.6042 16.6897 10.7972 16.6897 10.9984C16.6897 11.1996 16.6098 11.3925 16.4676 11.5348C16.3253 11.6771 16.1323 11.757 15.9311 11.757Z" fill="white"/>
</svg>
