<svg width="22" height="22" viewBox="0 0 22 22" fill="none" xmlns="http://www.w3.org/2000/svg">
<path d="M15.5832 8.2487V6.41536C15.5832 3.8487 13.5665 1.83203 10.9998 1.83203C8.43317 1.83203 6.4165 3.8487 6.4165 6.41536V8.2487C4.85817 8.2487 3.6665 9.44036 3.6665 10.9987V17.4154C3.6665 18.9737 4.85817 20.1654 6.4165 20.1654H15.5832C17.1415 20.1654 18.3332 18.9737 18.3332 17.4154V10.9987C18.3332 9.44036 17.1415 8.2487 15.5832 8.2487ZM8.24984 6.41536C8.24984 4.85703 9.4415 3.66536 10.9998 3.66536C12.5582 3.66536 13.7498 4.85703 13.7498 6.41536V8.2487H8.24984V6.41536ZM12.0082 14.207L11.9165 14.2987V15.582C11.9165 16.132 11.5498 16.4987 10.9998 16.4987C10.4498 16.4987 10.0832 16.132 10.0832 15.582V14.2987C9.53317 13.7487 9.4415 12.9237 9.9915 12.3737C10.5415 11.8237 11.3665 11.732 11.9165 12.282C12.4665 12.7404 12.5582 13.657 12.0082 14.207Z" fill="white"/>
</svg>
