<svg width="14" height="14" viewBox="0 0 14 14" fill="none" xmlns="http://www.w3.org/2000/svg">
<path d="M6.99986 9.79855C6.81687 9.79938 6.63583 9.83625 6.4671 9.90706C6.29836 9.97788 6.14523 10.0812 6.01645 10.2113C5.88768 10.3413 5.78578 10.4954 5.71658 10.6648C5.64738 10.8342 5.61224 11.0156 5.61316 11.1986C5.61316 11.9714 6.23406 12.5986 6.99986 12.5986C7.18279 12.5976 7.36375 12.5607 7.53241 12.4898C7.70106 12.419 7.85411 12.3156 7.98281 12.1856C8.11152 12.0556 8.21335 11.9015 8.28251 11.7322C8.35166 11.5628 8.38678 11.3815 8.38586 11.1986C8.38586 10.4251 7.76566 9.79855 6.99986 9.79855ZM4.05986 8.22915L5.03986 9.21895C5.29599 8.9592 5.60119 8.75294 5.93773 8.61216C6.27426 8.47138 6.63542 8.39888 7.00021 8.39888C7.365 8.39888 7.72616 8.47138 8.06269 8.61216C8.39923 8.75294 8.70443 8.9592 8.96056 9.21895L9.93986 8.22915C9.55575 7.83956 9.09804 7.53019 8.59333 7.31903C8.08861 7.10787 7.54696 6.99913 6.99986 6.99913C6.45275 6.99913 5.91111 7.10787 5.40639 7.31903C4.90168 7.53019 4.44397 7.83956 4.05986 8.22915ZM2.09986 6.24815L3.07986 7.23795C3.59199 6.7186 4.20223 6.3062 4.87512 6.02471C5.548 5.74323 6.27012 5.59828 6.99951 5.59828C7.7289 5.59828 8.45102 5.74323 9.1239 6.02471C9.79679 6.3062 10.407 6.7186 10.9192 7.23795L11.8999 6.24815C11.2596 5.59891 10.4968 5.08337 9.65558 4.73149C8.8144 4.37961 7.91167 4.19841 6.99986 4.19841C6.08804 4.19841 5.18532 4.37961 4.34414 4.73149C3.50295 5.08337 2.74009 5.59891 2.09986 6.24815ZM0.13916 4.26855L1.11916 5.25835C1.88743 4.47914 2.80292 3.86039 3.8124 3.43806C4.82189 3.01573 5.90524 2.79825 6.99951 2.79825C8.09378 2.79825 9.17713 3.01573 10.1866 3.43806C11.1961 3.86039 12.1116 4.47914 12.8799 5.25835L13.8599 4.26855C12.9635 3.35947 11.8955 2.6376 10.7178 2.14488C9.54005 1.65217 8.27614 1.39844 6.99951 1.39844C5.72287 1.39844 4.45897 1.65217 3.28125 2.14488C2.10352 2.6376 1.03547 3.35947 0.13916 4.26855Z" fill="#111111"/>
</svg>
